<svg width="24" height="24" viewBox="0 0 24 24" fill="none" xmlns="http://www.w3.org/2000/svg">
<g clip-path="url(#clip0_1312_282)">
<path d="M12.0001 23.625C1.61262 23.625 0.360869 14.625 0.375119 12.375V11.625C0.360869 9.375 1.61262 0.375 12.0001 0.375C22.3876 0.375 23.6394 9.375 23.6251 11.625V12.375C23.6394 14.625 22.3876 23.625 12.0001 23.625Z" fill="url(#paint0_linear_1312_282)"/>
<path d="M18.3024 13.8878C18.3607 13.8749 18.4213 13.8763 18.479 13.8919C18.5366 13.9074 18.5896 13.9367 18.6335 13.9773C18.6774 14.0178 18.7107 14.0684 18.7308 14.1247C18.7509 14.1809 18.757 14.2412 18.7487 14.3003C18.7215 14.6119 18.6676 14.9205 18.5874 15.2228C16.5762 16.3459 14.3033 16.916 12.0002 16.8751C9.6969 16.9156 7.42402 16.3451 5.41291 15.2217C5.33273 14.9194 5.27878 14.6108 5.25166 14.2992C5.24333 14.2401 5.24946 14.1798 5.26951 14.1235C5.28957 14.0673 5.32295 14.0167 5.36681 13.9762C5.41067 13.9356 5.4637 13.9063 5.52136 13.8907C5.57902 13.8751 5.6396 13.8738 5.69791 13.8867C7.74972 14.4622 9.86922 14.761 12.0002 14.7751C14.131 14.7613 16.2505 14.4629 18.3024 13.8878Z" fill="url(#paint1_linear_1312_282)"/>
<path d="M18.75 13.875H18.747C18.7482 13.8197 18.7367 13.7649 18.7135 13.7147C18.6903 13.6645 18.6559 13.6202 18.613 13.5853C18.5702 13.5504 18.5199 13.5257 18.466 13.5131C18.4122 13.5005 18.3562 13.5004 18.3022 13.5127C16.2504 14.0878 14.1309 14.3862 12 14.4C9.86906 14.3858 7.74956 14.0871 5.69775 13.5116C5.64374 13.4992 5.58763 13.4994 5.53369 13.512C5.47974 13.5247 5.4294 13.5495 5.3865 13.5845C5.34359 13.6196 5.30927 13.6639 5.28613 13.7143C5.26299 13.7646 5.25166 13.8196 5.253 13.875H5.25V14.25H5.253C5.25187 14.2666 5.25187 14.2832 5.253 14.2998C5.28012 14.6114 5.33407 14.9201 5.41425 15.2223C5.46305 15.4209 5.52443 15.6162 5.598 15.807C5.99133 16.8048 6.65153 17.6751 7.50638 18.3228C8.78439 19.3388 10.3689 19.8919 12.0015 19.8919C13.6341 19.8919 15.2186 19.3388 16.4966 18.3228C17.3515 17.6751 18.0117 16.8048 18.405 15.807C18.4786 15.6162 18.5399 15.4209 18.5887 15.2223C18.6689 14.9201 18.7229 14.6114 18.75 14.2998C18.7511 14.2832 18.7511 14.2666 18.75 14.25V13.875Z" fill="#ED8D06"/>
<path d="M18.747 14.25C18.7482 14.1947 18.7367 14.1399 18.7135 14.0897C18.6903 14.0395 18.6559 13.9952 18.613 13.9603C18.5702 13.9254 18.5199 13.9007 18.466 13.8881C18.4122 13.8755 18.3562 13.8754 18.3022 13.8877C16.2504 14.4628 14.1309 14.7612 12 14.775C9.86906 14.7608 7.74956 14.4621 5.69775 13.8866C5.64374 13.8742 5.58763 13.8744 5.53369 13.887C5.47974 13.8997 5.4294 13.9245 5.3865 13.9595C5.34359 13.9946 5.30927 14.0389 5.28613 14.0893C5.26299 14.1396 5.25166 14.1946 5.253 14.25H5.25V14.625H5.253C5.25187 14.6416 5.25187 14.6582 5.253 14.6748C5.28012 14.9864 5.33407 15.2951 5.41425 15.5973C5.46305 15.7959 5.52443 15.9912 5.598 16.182C5.99133 17.1798 6.65153 18.0501 7.50638 18.6978C8.78439 19.7138 10.3689 20.2669 12.0015 20.2669C13.6341 20.2669 15.2186 19.7138 16.4966 18.6978C17.3515 18.0501 18.0117 17.1798 18.405 16.182C18.4786 15.9912 18.5399 15.7959 18.5887 15.5973C18.6689 15.2951 18.7229 14.9864 18.75 14.6748C18.7511 14.6582 18.7511 14.6416 18.75 14.625V14.25H18.747Z" fill="#F9BF06"/>
<path d="M14.5943 19.41C12.9203 20.03 11.0797 20.03 9.40576 19.41C9.52914 19.0837 10.0875 18 12 18C13.9125 18 14.4709 19.0837 14.5943 19.41Z" fill="#8F030E"/>
<path d="M18.4036 15.8071C18.0103 16.8048 17.3501 17.6752 16.4952 18.3229C15.9212 18.7809 15.2801 19.1477 14.5943 19.4104C14.471 19.0838 13.9126 18.0001 12.0001 18.0001C10.0876 18.0001 9.52922 19.0834 9.40584 19.4097C8.72013 19.1469 8.07899 18.7801 7.50497 18.3222C6.65012 17.6745 5.98992 16.8041 5.59659 15.8063C5.52297 15.6155 5.46159 15.4203 5.41284 15.2217C7.42396 16.3451 9.69683 16.9156 12.0001 16.8751C14.3034 16.9156 16.5762 16.3451 18.5873 15.2217C18.5386 15.4205 18.4772 15.616 18.4036 15.8071Z" fill="url(#paint2_linear_1312_282)"/>
<path d="M18.3024 13.8878C18.3607 13.8749 18.4213 13.8763 18.479 13.8919C18.5366 13.9074 18.5896 13.9367 18.6335 13.9773C18.6774 14.0178 18.7107 14.0684 18.7308 14.1247C18.7509 14.1809 18.757 14.2412 18.7487 14.3003C18.7215 14.6119 18.6676 14.9205 18.5874 15.2228C16.5762 16.3459 14.3033 16.916 12.0002 16.8751C9.6969 16.9156 7.42402 16.3451 5.41291 15.2217C5.33273 14.9194 5.27878 14.6108 5.25166 14.2992C5.24333 14.2401 5.24946 14.1798 5.26951 14.1235C5.28957 14.0673 5.32295 14.0167 5.36681 13.9762C5.41067 13.9356 5.4637 13.9063 5.52136 13.8907C5.57902 13.8751 5.6396 13.8738 5.69791 13.8867C7.74972 14.4622 9.86922 14.761 12.0002 14.7751C14.131 14.7613 16.2505 14.4629 18.3024 13.8878Z" fill="url(#paint3_linear_1312_282)"/>
<path d="M18.3024 13.8878C18.3607 13.8749 18.4213 13.8763 18.479 13.8919C18.5366 13.9074 18.5896 13.9367 18.6335 13.9773C18.6774 14.0178 18.7107 14.0684 18.7308 14.1247C18.7509 14.1809 18.757 14.2412 18.7487 14.3003C18.7215 14.6119 18.6676 14.9205 18.5874 15.2228C16.5762 16.3459 14.3033 16.916 12.0002 16.8751C9.6969 16.9156 7.42402 16.3451 5.41291 15.2217C5.33273 14.9194 5.27878 14.6108 5.25166 14.2992C5.24333 14.2401 5.24946 14.1798 5.26951 14.1235C5.28957 14.0673 5.32295 14.0167 5.36681 13.9762C5.41067 13.9356 5.4637 13.9063 5.52136 13.8907C5.57902 13.8751 5.6396 13.8738 5.69791 13.8867C7.74972 14.4622 9.86922 14.761 12.0002 14.7751C14.131 14.7613 16.2505 14.4629 18.3024 13.8878Z" fill="url(#paint4_linear_1312_282)"/>
<path d="M21.9254 4.81826C20.0916 4.33901 19.1253 5.24988 19.1253 5.24988C19.1253 5.24988 18.625 3.95576 16.7913 3.47651C16.5052 3.37947 16.2019 3.3438 15.9011 3.37182C15.6003 3.39984 15.3088 3.49092 15.0456 3.63912C14.7824 3.78733 14.5533 3.98934 14.3734 4.23198C14.1935 4.47463 14.0667 4.75246 14.0013 5.04738C13.8522 5.58182 13.8354 6.14448 13.9521 6.68688C14.517 8.84623 15.6568 10.812 17.2503 12.3749C19.3657 11.791 21.27 10.6142 22.7384 8.98338C23.1163 8.57315 23.3899 8.07794 23.536 7.53963C23.7325 6.82488 23.7591 5.29751 21.9254 4.81826Z" fill="#EC3A4A"/>
<path d="M21.9254 4.81848C20.0916 4.33923 19.1253 5.2501 19.1253 5.2501C19.1253 5.2501 18.625 3.95598 16.7913 3.47673C16.5052 3.37969 16.2018 3.34403 15.901 3.37208C15.6002 3.40012 15.3087 3.49123 15.0455 3.63948C14.7823 3.78772 14.5532 3.98977 14.3733 4.23246C14.1934 4.47515 14.0666 4.75302 14.0013 5.04798C13.8522 5.58229 13.8354 6.14483 13.9521 6.6871C14.517 8.84645 15.6568 10.8122 17.2503 12.3751C19.3657 11.7912 21.27 10.6144 22.7384 8.9836C23.1163 8.57336 23.3899 8.07816 23.536 7.53985C23.7325 6.8251 23.7591 5.29773 21.9254 4.81848Z" fill="url(#paint5_linear_1312_282)"/>
<path d="M16.4903 4.1459C18.3991 4.6454 18.9323 5.94815 18.9323 5.94815C18.9323 5.94815 19.9265 5.04477 21.8352 5.54427C23.0491 5.8619 23.4852 6.59615 23.5921 7.27265C23.7147 6.49715 23.5546 5.24427 21.9252 4.81827C20.0915 4.33902 19.1251 5.2499 19.1251 5.2499C19.1251 5.2499 18.6248 3.95577 16.7911 3.47652C15.1801 3.0554 14.4001 4.03452 14.1001 4.7624C14.5411 4.24002 15.2922 3.8324 16.4903 4.1459Z" fill="url(#paint6_linear_1312_282)"/>
<path d="M21.1003 7.54045C21.0874 7.63217 21.0952 7.7256 21.1231 7.81391C21.151 7.90223 21.1983 7.98318 21.2616 8.05084C21.3248 8.11851 21.4024 8.17117 21.4886 8.20497C21.5748 8.23877 21.6675 8.25286 21.7599 8.2462C21.8969 8.23136 22.0315 8.19923 22.1604 8.15057C22.3675 8.0779 22.5471 7.94326 22.675 7.76494C22.8029 7.58661 22.8728 7.37324 22.8752 7.15382C22.8542 6.92577 22.761 6.71034 22.6093 6.53882C22.3389 6.21595 21.3845 5.7112 21.0587 6.20995C20.9087 6.44057 21.1022 6.85232 21.1157 7.10695C21.1229 7.25162 21.1178 7.39665 21.1003 7.54045Z" fill="url(#paint7_linear_1312_282)"/>
<path d="M17.6653 6.27708C17.6462 6.54558 17.7778 6.77658 17.9278 6.74733C17.985 6.73664 18.0395 6.71499 18.0883 6.68358C18.1862 6.60416 18.2634 6.50225 18.3133 6.38654C18.3633 6.27083 18.3845 6.14476 18.3752 6.01908C18.3695 5.87645 18.3333 5.7367 18.2691 5.6092C18.1607 5.39395 17.779 5.05758 17.6488 5.38983C17.6235 5.58973 17.6313 5.79243 17.6717 5.98983C17.6744 6.08562 17.6723 6.18149 17.6653 6.27708Z" fill="url(#paint8_linear_1312_282)"/>
<path d="M2.07502 4.81848C3.90877 4.33923 4.87515 5.2501 4.87515 5.2501C4.87515 5.2501 5.3754 3.95598 7.20915 3.47673C7.49525 3.37969 7.79858 3.34403 8.09938 3.37208C8.40018 3.40012 8.6917 3.49123 8.95493 3.63948C9.21817 3.78772 9.44721 3.98977 9.62713 4.23246C9.80705 4.47515 9.93381 4.75302 9.99915 5.04798C10.1482 5.58229 10.1651 6.14483 10.0483 6.6871C9.48345 8.84645 8.34362 10.8122 6.75015 12.3751C4.63472 11.7912 2.73045 10.6144 1.26202 8.9836C0.884099 8.57336 0.610513 8.07816 0.464397 7.53985C0.267897 6.8251 0.241272 5.29773 2.07502 4.81848Z" fill="url(#paint9_linear_1312_282)"/>
<path d="M7.50977 4.14589C5.60102 4.64539 5.06777 5.94814 5.06777 5.94814C5.06777 5.94814 4.07365 5.04476 2.1649 5.54426C0.951022 5.86189 0.514897 6.59614 0.408022 7.27264C0.285397 6.49714 0.445522 5.24426 2.0749 4.81826C3.90865 4.33901 4.87502 5.24989 4.87502 5.24989C4.87502 5.24989 5.37527 3.95576 7.20902 3.47651C8.82152 3.05539 9.6019 4.03451 9.90115 4.76389C9.45902 4.24001 8.7079 3.83239 7.50977 4.14589Z" fill="url(#paint10_linear_1312_282)"/>
<path d="M7.89609 6.18748C7.93623 6.27093 7.99452 6.34435 8.0667 6.40236C8.13887 6.46037 8.22311 6.50151 8.31324 6.52276C8.40337 6.544 8.49711 6.54482 8.5876 6.52516C8.67809 6.5055 8.76303 6.46584 8.83622 6.40911C8.94203 6.32065 9.03616 6.21908 9.11634 6.10686C9.24804 5.93159 9.3226 5.72004 9.32991 5.50093C9.33723 5.28182 9.27693 5.06577 9.15722 4.88211C9.01315 4.70407 8.81613 4.57653 8.59472 4.51798C8.19047 4.39911 7.11647 4.50861 7.12209 5.10448C7.12434 5.37973 7.51472 5.61486 7.66697 5.81923C7.75363 5.93527 7.83028 6.05847 7.89609 6.18748Z" fill="url(#paint11_linear_1312_282)"/>
<path d="M4.33704 7.04019C4.47017 7.27419 4.7083 7.39306 4.81742 7.28544C4.85891 7.24482 4.89214 7.19656 4.9153 7.14331C4.95251 7.02279 4.96005 6.89507 4.93726 6.77101C4.91447 6.64695 4.86204 6.53024 4.78442 6.43081C4.7002 6.31539 4.59245 6.21915 4.4683 6.14844C4.25905 6.02956 3.7558 5.96094 3.8308 6.31044C3.86605 6.47169 4.08317 6.65694 4.1818 6.79531C4.23767 6.87519 4.28942 6.95694 4.33704 7.04019Z" fill="url(#paint12_linear_1312_282)"/>
<path d="M13.9519 6.68711C13.8351 6.14483 13.852 5.58229 14.001 5.04798C14.0924 4.72485 14.2452 4.42235 14.451 4.15698C14.0509 4.48278 13.7625 4.92537 13.626 5.42298C13.477 5.95729 13.4601 6.51983 13.5769 7.06211C14.1418 9.22142 15.2816 11.1872 16.875 12.7501C18.8881 12.1969 20.7112 11.1031 22.1468 9.58736C20.7738 10.9122 19.09 11.8708 17.25 12.3751C15.6566 10.8122 14.5168 8.84642 13.9519 6.68711ZM10.05 6.68711C9.48458 8.84662 8.34411 10.8124 6.75002 12.3751C4.91 11.8708 3.2262 10.9122 1.85327 9.58736C3.28884 11.1031 5.11199 12.1969 7.12502 12.7501C8.71911 11.1874 9.85958 9.22162 10.425 7.06211C10.5418 6.51983 10.5249 5.95729 10.3759 5.42298C10.2394 4.92537 9.95101 4.48278 9.5509 4.15698C9.75669 4.42235 9.90948 4.72485 10.0009 5.04798C10.1499 5.58229 10.1668 6.14483 10.05 6.68711Z" fill="#ED8D06"/>
</g>
<defs>
<linearGradient id="paint0_linear_1312_282" x1="12.0001" y1="0.489" x2="12.0001" y2="23.739" gradientUnits="userSpaceOnUse">
<stop stop-color="#FFE100"/>
<stop offset="1" stop-color="#F98900"/>
</linearGradient>
<linearGradient id="paint1_linear_1312_282" x1="5.25016" y1="15.3755" x2="18.7502" y2="15.3755" gradientUnits="userSpaceOnUse">
<stop stop-color="#B8B4B2"/>
<stop offset="0.143" stop-color="#D0CCC9"/>
<stop offset="0.374" stop-color="#F2EDEA"/>
<stop offset="0.5" stop-color="#FFFAF6"/>
<stop offset="0.638" stop-color="#F9F5F1"/>
<stop offset="0.825" stop-color="#E8E5E3"/>
<stop offset="1" stop-color="#D1D1D1"/>
</linearGradient>
<linearGradient id="paint2_linear_1312_282" x1="12.0001" y1="19.9782" x2="12.0001" y2="13.8904" gradientUnits="userSpaceOnUse">
<stop stop-color="#69101B"/>
<stop offset="0.427" stop-color="#400A10"/>
</linearGradient>
<linearGradient id="paint3_linear_1312_282" x1="12.0002" y1="14.3112" x2="12.0002" y2="16.832" gradientUnits="userSpaceOnUse">
<stop stop-color="#B8B4B2"/>
<stop offset="0.143" stop-color="#D0CCC9"/>
<stop offset="0.374" stop-color="#F2EDEA"/>
<stop offset="0.5" stop-color="#FFFAF6"/>
<stop offset="0.638" stop-color="#F9F5F1"/>
<stop offset="0.825" stop-color="#E8E5E3"/>
<stop offset="1" stop-color="#D1D1D1"/>
</linearGradient>
<linearGradient id="paint4_linear_1312_282" x1="12.0002" y1="14.3112" x2="12.0002" y2="16.832" gradientUnits="userSpaceOnUse">
<stop stop-color="#ABABAB" stop-opacity="0.5"/>
<stop offset="0.541" stop-color="#C1C1C1" stop-opacity="0.216"/>
<stop offset="1" stop-color="#D1D1D1" stop-opacity="0"/>
</linearGradient>
<linearGradient id="paint5_linear_1312_282" x1="19.7324" y1="3.45423" x2="16.7583" y2="12.2292" gradientUnits="userSpaceOnUse">
<stop stop-color="#FF5F6F"/>
<stop offset="0.346" stop-color="#FF2D44"/>
<stop offset="0.722" stop-color="#D41E32"/>
<stop offset="0.853" stop-color="#D61F33"/>
<stop offset="0.918" stop-color="#DE2337"/>
<stop offset="0.968" stop-color="#EB293E"/>
<stop offset="1" stop-color="#F82F44"/>
</linearGradient>
<linearGradient id="paint6_linear_1312_282" x1="19.3767" y1="3.3374" x2="18.7227" y2="6.63852" gradientUnits="userSpaceOnUse">
<stop stop-color="#FF8A95"/>
<stop offset="0.66" stop-color="#FF495D"/>
<stop offset="1" stop-color="#FF2D44"/>
</linearGradient>
<linearGradient id="paint7_linear_1312_282" x1="22.1383" y1="6.2737" x2="21.4603" y2="8.20645" gradientUnits="userSpaceOnUse">
<stop stop-color="#FF5F5F"/>
<stop offset="0.283" stop-color="#FF565A"/>
<stop offset="0.746" stop-color="#FF3D4D"/>
<stop offset="1" stop-color="#FF2D44"/>
</linearGradient>
<linearGradient id="paint8_linear_1312_282" x1="18.1442" y1="5.42058" x2="17.6991" y2="6.68995" gradientUnits="userSpaceOnUse">
<stop stop-color="#FF5F5F"/>
<stop offset="0.283" stop-color="#FF565A"/>
<stop offset="0.746" stop-color="#FF3D4D"/>
<stop offset="1" stop-color="#FF2D44"/>
</linearGradient>
<linearGradient id="paint9_linear_1312_282" x1="4.26802" y1="3.45423" x2="7.24215" y2="12.2292" gradientUnits="userSpaceOnUse">
<stop stop-color="#FF5F6F"/>
<stop offset="0.346" stop-color="#FF2D44"/>
<stop offset="0.722" stop-color="#D41E32"/>
<stop offset="0.853" stop-color="#D61F33"/>
<stop offset="0.918" stop-color="#DE2337"/>
<stop offset="0.968" stop-color="#EB293E"/>
<stop offset="1" stop-color="#F82F44"/>
</linearGradient>
<linearGradient id="paint10_linear_1312_282" x1="4.6234" y1="3.33739" x2="5.2774" y2="6.63851" gradientUnits="userSpaceOnUse">
<stop stop-color="#FF8A95"/>
<stop offset="0.66" stop-color="#FF495D"/>
<stop offset="1" stop-color="#FF2D44"/>
</linearGradient>
<linearGradient id="paint11_linear_1312_282" x1="8.06416" y1="4.55173" x2="8.57226" y2="6.53556" gradientUnits="userSpaceOnUse">
<stop stop-color="#FF5F5F"/>
<stop offset="0.283" stop-color="#FF565A"/>
<stop offset="0.746" stop-color="#FF3D4D"/>
<stop offset="1" stop-color="#FF2D44"/>
</linearGradient>
<linearGradient id="paint12_linear_1312_282" x1="4.26795" y1="6.05804" x2="4.60162" y2="7.36129" gradientUnits="userSpaceOnUse">
<stop stop-color="#FF5F5F"/>
<stop offset="0.283" stop-color="#FF565A"/>
<stop offset="0.746" stop-color="#FF3D4D"/>
<stop offset="1" stop-color="#FF2D44"/>
</linearGradient>
<clipPath id="clip0_1312_282">
<rect width="24" height="24" fill="white"/>
</clipPath>
</defs>
</svg>
