<svg width="24" height="24" viewBox="0 0 24 24" fill="none" xmlns="http://www.w3.org/2000/svg">
<path d="M14.9439 21.8927C14.9439 22.254 13.6259 22.5469 12 22.5469C10.3742 22.5469 9.05617 22.254 9.05617 21.8927C9.05617 21.5314 10.3742 21.2385 12 21.2385C13.6258 21.2385 14.9439 21.5314 14.9439 21.8927ZM17.2457 14.1173L12.0001 19.363L6.75438 14.1173C3.85727 11.2201 3.85727 6.52315 6.75438 3.62599C9.65148 0.728836 14.3485 0.728836 17.2456 3.62599C20.1428 6.52315 20.1428 11.2201 17.2457 14.1173ZM16.3995 8.87163C16.3995 6.44187 14.4298 4.47213 12 4.47213C9.57025 4.47213 7.60056 6.44187 7.60056 8.87163C7.60056 11.3014 9.57025 13.2711 12 13.2711C14.4298 13.2711 16.3995 11.3014 16.3995 8.87163Z" fill="url(#paint0_linear_7_6)"/>
<defs>
<linearGradient id="paint0_linear_7_6" x1="5.36786" y1="18.2769" x2="18.6322" y2="5.01255" gradientUnits="userSpaceOnUse">
<stop stop-color="#FC4422"/>
<stop offset="1" stop-color="#FFBB32"/>
</linearGradient>
</defs>
</svg>
