<svg width="512" height="512" viewBox="0 0 512 512" fill="none" xmlns="http://www.w3.org/2000/svg">
<path d="M489.157 3.93846H22.8431C12.6031 3.93846 3.93848 11.8154 3.93848 22.0554V460.012C3.93848 470.252 12.6031 478.129 22.8431 478.129H489.157C499.397 478.129 508.062 470.252 508.062 460.012V22.0554C508.062 11.8154 499.397 3.93846 489.157 3.93846Z" fill="#DBDFE0"/>
<path d="M63.8031 478.129H106.338V508.062H63.8031V478.129ZM405.662 478.129H448.197V508.062H405.662V478.129Z" fill="#DCC88D"/>
<path d="M63.8031 62.2277H447.409V419.84H63.8031V62.2277Z" fill="#DCC88D"/>
<path d="M256 338.708C313.424 338.708 359.975 294.978 359.975 241.034C359.975 187.09 313.424 143.36 256 143.36C198.576 143.36 152.025 187.09 152.025 241.034C152.025 294.978 198.576 338.708 256 338.708Z" fill="#DBDFE0"/>
<path d="M256 280.418C279.057 280.418 297.748 262.785 297.748 241.034C297.748 219.282 279.057 201.649 256 201.649C232.943 201.649 214.252 219.282 214.252 241.034C214.252 262.785 232.943 280.418 256 280.418Z" fill="#847855"/>
<path d="M53.5631 113.428H74.0431V175.655H53.5631V113.428ZM53.5631 306.412H74.0431V368.64H53.5631V306.412ZM402.511 186.683C396.209 186.683 390.695 191.409 390.695 197.711V284.357C390.695 290.658 396.209 295.385 402.511 295.385C408.812 295.385 414.326 290.658 414.326 284.357V197.711C414.326 191.409 409.6 186.683 402.511 186.683Z" fill="#847855"/>
</svg>
