<svg width="512" height="512" viewBox="0 0 512 512" fill="none" xmlns="http://www.w3.org/2000/svg">
<path d="M256 108.59C249.87 108.59 244.102 107.052 239.042 104.362V386.416H272.96V104.362C267.739 107.142 261.915 108.594 256 108.59Z" fill="#E6E7E8"/>
<path d="M262.958 107.906V366.416C262.958 369.068 261.904 371.612 260.029 373.487C258.154 375.362 255.61 376.416 252.958 376.416H239.04V386.416H272.958V104.362C269.818 106.031 266.448 107.226 262.958 107.906Z" fill="#D1D3D4"/>
<path d="M438.246 57.908L79.636 121.14C77.4454 121.526 75.2002 121.477 73.0286 120.996C70.8569 120.514 68.8014 119.61 66.9793 118.334C65.1572 117.058 63.6043 115.436 62.4092 113.56C61.2141 111.684 60.4002 109.591 60.014 107.4C59.6277 105.209 59.6768 102.964 60.1582 100.793C60.6397 98.6209 61.5442 96.5654 62.8201 94.7433C64.0959 92.9212 65.7182 91.3683 67.5943 90.1732C69.4703 88.9781 71.5634 88.1642 73.754 87.778L432.364 24.546C436.758 23.8358 441.255 24.8834 444.882 27.4623C448.51 30.0413 450.977 33.9443 451.75 38.3276C452.523 42.711 451.539 47.2223 449.012 50.8864C446.485 54.5504 442.618 57.0728 438.246 57.908Z" fill="#E6E7E8"/>
<path d="M451.984 38.286C450.902 32.146 446.63 27.382 441.178 25.358C441.524 26.296 441.804 27.268 441.984 28.286C442.37 30.4766 442.321 32.7218 441.84 34.8934C441.358 37.0651 440.454 39.1206 439.178 40.9427C437.902 42.7648 436.28 44.3177 434.404 45.5128C432.528 46.7079 430.435 47.5218 428.244 47.908L69.636 111.14C66.6777 111.661 63.6338 111.382 60.82 110.33C63.6 117.87 71.442 122.584 79.636 121.14L438.246 57.908C440.437 57.5218 442.53 56.7079 444.406 55.5128C446.281 54.3177 447.904 52.7647 449.179 50.9426C450.455 49.1205 451.359 47.0649 451.841 44.8933C452.322 42.7216 452.371 40.4765 451.984 38.286Z" fill="#D1D3D4"/>
<path d="M313.256 386.416H198.744C187.698 386.416 178.744 395.37 178.744 406.416V425.858H333.256V406.416C333.256 395.37 324.302 386.416 313.256 386.416Z" fill="#E6E7E8"/>
<path d="M321.476 388.196C322.648 390.777 323.255 393.579 323.256 396.414V405.856C323.256 407.169 322.997 408.47 322.495 409.683C321.992 410.896 321.256 411.998 320.327 412.927C319.398 413.856 318.296 414.592 317.083 415.095C315.87 415.597 314.569 415.856 313.256 415.856H178.744V425.856H333.256V406.414C333.256 398.302 328.416 391.334 321.476 388.196Z" fill="#D1D3D4"/>
<path d="M374.48 487.712H137.52C136.459 487.712 135.442 487.291 134.692 486.54C133.941 485.79 133.52 484.773 133.52 483.712V445.856C133.52 434.81 142.474 425.856 153.52 425.856H358.48C369.526 425.856 378.48 434.81 378.48 445.856V483.712C378.48 484.773 378.059 485.79 377.308 486.54C376.558 487.291 375.541 487.712 374.48 487.712Z" fill="#939598"/>
<path d="M374.48 487.712H137.52C136.459 487.712 135.442 487.291 134.692 486.54C133.941 485.79 133.52 484.773 133.52 483.712V445.856C133.52 434.81 142.474 425.856 153.52 425.856H358.48C369.526 425.856 378.48 434.81 378.48 445.856V483.712C378.48 484.773 378.059 485.79 377.308 486.54C376.558 487.291 375.541 487.712 374.48 487.712Z" fill="#808285"/>
<path d="M256 441.858H255C253.939 441.858 252.922 441.437 252.172 440.686C251.421 439.936 251 438.919 251 437.858C251 436.797 251.421 435.78 252.172 435.03C252.922 434.279 253.939 433.858 255 433.858H256C257.061 433.858 258.078 434.279 258.828 435.03C259.579 435.78 260 436.797 260 437.858C260 438.919 259.579 439.936 258.828 440.686C258.078 441.437 257.061 441.858 256 441.858ZM239 441.858H167C165.939 441.858 164.922 441.437 164.172 440.686C163.421 439.936 163 438.919 163 437.858C163 436.797 163.421 435.78 164.172 435.03C164.922 434.279 165.939 433.858 167 433.858H239C240.061 433.858 241.078 434.279 241.828 435.03C242.579 435.78 243 436.797 243 437.858C243 438.919 242.579 439.936 241.828 440.686C241.078 441.437 240.061 441.858 239 441.858Z" fill="#939598"/>
<path d="M358.48 425.858V457.714C358.48 460.366 357.426 462.91 355.551 464.785C353.676 466.66 351.132 467.714 348.48 467.714H133.52V483.714C133.52 484.775 133.941 485.792 134.692 486.542C135.442 487.293 136.459 487.714 137.52 487.714H374.48C375.541 487.714 376.558 487.293 377.308 486.542C378.059 485.792 378.48 484.775 378.48 483.714V445.858C378.48 434.812 369.526 425.858 358.48 425.858Z" fill="#58595B"/>
<path d="M366.698 427.638C367.87 430.219 368.477 433.021 368.478 435.856V467.712C368.478 470.364 367.424 472.908 365.549 474.783C363.674 476.658 361.13 477.712 358.478 477.712H133.52V483.712C133.52 484.773 133.941 485.79 134.692 486.54C135.442 487.291 136.459 487.712 137.52 487.712H374.48C375.541 487.712 376.558 487.291 377.308 486.54C378.059 485.79 378.48 484.773 378.48 483.712V445.856C378.48 437.744 373.64 430.776 366.698 427.638Z" fill="#414042"/>
<path d="M256 108.588C275.987 108.588 292.19 92.3852 292.19 72.398C292.19 52.4108 275.987 36.208 256 36.208C236.013 36.208 219.81 52.4108 219.81 72.398C219.81 92.3852 236.013 108.588 256 108.588Z" fill="#939598"/>
<path d="M276.094 42.304C280.077 48.2479 282.199 55.2432 282.19 62.398C282.19 82.386 265.986 98.588 246 98.588C238.845 98.5971 231.85 96.4749 225.906 92.492C232.398 102.194 243.45 108.588 256 108.588C275.988 108.588 292.19 92.384 292.19 72.398C292.19 59.848 285.798 48.796 276.094 42.304Z" fill="#808285"/>
<path d="M256 85.588C263.285 85.588 269.19 79.6826 269.19 72.398C269.19 65.1134 263.285 59.208 256 59.208C248.715 59.208 242.81 65.1134 242.81 72.398C242.81 79.6826 248.715 85.588 256 85.588Z" fill="#58595B"/>
<path d="M162.5 353.686H69.5C58.454 353.686 49.5 344.732 49.5 333.686V204.578C49.5 198.916 51.9 193.522 56.102 189.728L102.602 147.774C106.277 144.458 111.05 142.623 116 142.623C120.95 142.623 125.723 144.458 129.398 147.774L175.898 189.728C177.977 191.603 179.638 193.894 180.776 196.452C181.913 199.01 182.5 201.779 182.5 204.578V333.686C182.5 344.73 173.546 353.686 162.5 353.686Z" fill="#997834"/>
<path d="M162.5 353.686H69.5C58.454 353.686 49.5 344.732 49.5 333.686V204.578C49.5 198.916 51.9 193.522 56.102 189.728L102.602 147.774C106.277 144.458 111.05 142.623 116 142.623C120.95 142.623 125.723 144.458 129.398 147.774L175.898 189.728C177.977 191.603 179.638 193.894 180.776 196.452C181.913 199.01 182.5 201.779 182.5 204.578V333.686C182.5 344.73 173.546 353.686 162.5 353.686Z" fill="#FFC857"/>
<path d="M175.898 189.728L169.3 183.774C171.381 186.993 172.492 190.743 172.5 194.576V323.684C172.5 334.73 163.546 343.684 152.5 343.684H59.5C56.6645 343.683 53.862 343.076 51.28 341.904C54.418 348.846 61.386 353.684 69.5 353.684H162.5C173.546 353.684 182.5 344.73 182.5 333.684V204.576C182.5 198.916 180.1 193.52 175.898 189.728Z" fill="#CCA046"/>
<path d="M123.21 265.52H120V237.466H123.21C130.944 237.466 137.238 243.758 137.238 251.492C137.238 252.553 137.659 253.57 138.41 254.32C139.16 255.071 140.177 255.492 141.238 255.492C142.299 255.492 143.316 255.071 144.066 254.32C144.817 253.57 145.238 252.553 145.238 251.492C145.238 239.346 135.356 229.466 123.21 229.466H120V226.256C120 225.195 119.579 224.178 118.828 223.428C118.078 222.677 117.061 222.256 116 222.256C114.939 222.256 113.922 222.677 113.172 223.428C112.421 224.178 112 225.195 112 226.256V229.466H108.79C96.644 229.466 86.762 239.346 86.762 251.492C86.762 263.638 96.644 273.52 108.79 273.52H112V308.786H108.79C105.071 308.782 101.505 307.302 98.8754 304.673C96.2455 302.043 94.7662 298.477 94.762 294.758C94.762 293.697 94.3406 292.68 93.5904 291.93C92.8403 291.179 91.8229 290.758 90.762 290.758C89.7011 290.758 88.6837 291.179 87.9336 291.93C87.1834 292.68 86.762 293.697 86.762 294.758C86.762 306.904 96.644 316.786 108.79 316.786H112V319.996C112 321.057 112.421 322.074 113.172 322.824C113.922 323.575 114.939 323.996 116 323.996C117.061 323.996 118.078 323.575 118.828 322.824C119.579 322.074 120 321.057 120 319.996V316.786H123.21C135.356 316.786 145.238 306.904 145.238 294.758V287.548C145.238 275.402 135.356 265.52 123.21 265.52ZM108.79 265.52C101.056 265.52 94.762 259.228 94.762 251.492C94.762 243.756 101.054 237.466 108.79 237.466H112V265.52H108.79ZM137.238 294.758C137.234 298.477 135.754 302.043 133.125 304.673C130.495 307.302 126.929 308.782 123.21 308.786H120V273.52H123.21C126.929 273.524 130.495 275.004 133.125 277.633C135.754 280.263 137.234 283.829 137.238 287.548V294.758Z" fill="white"/>
<path d="M116 202.606C125.798 202.606 133.74 194.664 133.74 184.866C133.74 175.068 125.798 167.126 116 167.126C106.202 167.126 98.26 175.068 98.26 184.866C98.26 194.664 106.202 202.606 116 202.606Z" fill="#CCA046"/>
<path d="M116 194.866C121.523 194.866 126 190.389 126 184.866C126 179.343 121.523 174.866 116 174.866C110.477 174.866 106 179.343 106 184.866C106 190.389 110.477 194.866 116 194.866Z" fill="#997834"/>
<path d="M116 188.866C114.939 188.866 113.922 188.445 113.172 187.694C112.421 186.944 112 185.927 112 184.866V79.906C112 78.8451 112.421 77.8277 113.172 77.0776C113.922 76.3274 114.939 75.906 116 75.906C117.061 75.906 118.078 76.3274 118.828 77.0776C119.579 77.8277 120 78.8451 120 79.906V184.866C120 185.927 119.579 186.944 118.828 187.694C118.078 188.445 117.061 188.866 116 188.866Z" fill="#414042"/>
<path d="M442.5 303.686H349.5C338.454 303.686 329.5 294.732 329.5 283.686V154.578C329.5 148.916 331.9 143.522 336.102 139.728L382.602 97.774C386.277 94.4583 391.05 92.623 396 92.623C400.95 92.623 405.723 94.4583 409.398 97.774L455.898 139.728C457.977 141.603 459.638 143.894 460.776 146.452C461.913 149.01 462.5 151.779 462.5 154.578V283.686C462.5 294.73 453.546 303.686 442.5 303.686Z" fill="#997834"/>
<path d="M442.5 303.686H349.5C338.454 303.686 329.5 294.732 329.5 283.686V154.578C329.5 148.916 331.9 143.522 336.102 139.728L382.602 97.774C386.277 94.4583 391.05 92.623 396 92.623C400.95 92.623 405.723 94.4583 409.398 97.774L455.898 139.728C457.977 141.603 459.638 143.894 460.776 146.452C461.913 149.01 462.5 151.779 462.5 154.578V283.686C462.5 294.73 453.546 303.686 442.5 303.686Z" fill="#DCC88D"/>
<path d="M455.898 139.728L449.3 133.774C451.381 136.993 452.492 140.743 452.5 144.576V273.684C452.5 284.73 443.546 293.684 432.5 293.684H339.5C336.665 293.683 333.862 293.076 331.28 291.904C334.418 298.846 341.386 303.684 349.5 303.684H442.5C453.546 303.684 462.5 294.73 462.5 283.684V154.578C462.5 148.916 460.1 143.52 455.898 139.728Z" fill="#B0A071"/>
<path d="M403.21 215.52H400V187.466H403.21C410.944 187.466 417.238 193.758 417.238 201.492C417.238 202.553 417.659 203.57 418.41 204.32C419.16 205.071 420.177 205.492 421.238 205.492C422.299 205.492 423.316 205.071 424.066 204.32C424.817 203.57 425.238 202.553 425.238 201.492C425.238 189.346 415.358 179.466 403.21 179.466H400V176.256C400 175.195 399.579 174.178 398.828 173.428C398.078 172.677 397.061 172.256 396 172.256C394.939 172.256 393.922 172.677 393.172 173.428C392.421 174.178 392 175.195 392 176.256V179.466H388.79C376.644 179.466 366.762 189.346 366.762 201.492C366.762 213.638 376.642 223.52 388.79 223.52H392V258.786H388.79C385.071 258.782 381.505 257.302 378.875 254.673C376.246 252.043 374.766 248.477 374.762 244.758C374.762 243.697 374.341 242.68 373.59 241.93C372.84 241.179 371.823 240.758 370.762 240.758C369.701 240.758 368.684 241.179 367.934 241.93C367.183 242.68 366.762 243.697 366.762 244.758C366.762 256.904 376.642 266.786 388.79 266.786H392V269.996C392 271.057 392.421 272.074 393.172 272.824C393.922 273.575 394.939 273.996 396 273.996C397.061 273.996 398.078 273.575 398.828 272.824C399.579 272.074 400 271.057 400 269.996V266.786H403.21C415.356 266.786 425.238 256.904 425.238 244.758V237.548C425.238 225.402 415.358 215.52 403.21 215.52ZM388.79 215.52C381.056 215.52 374.762 209.228 374.762 201.492C374.762 193.756 381.054 187.466 388.79 187.466H392V215.52H388.79ZM417.238 244.758C417.234 248.477 415.754 252.043 413.125 254.673C410.495 257.302 406.929 258.782 403.21 258.786H400V223.52H403.21C406.929 223.524 410.495 225.004 413.125 227.633C415.754 230.263 417.234 233.829 417.238 237.548V244.758Z" fill="white"/>
<path d="M396 152.606C405.798 152.606 413.74 144.664 413.74 134.866C413.74 125.068 405.798 117.126 396 117.126C386.202 117.126 378.26 125.068 378.26 134.866C378.26 144.664 386.202 152.606 396 152.606Z" fill="#B0A071"/>
<path d="M396 144.866C401.523 144.866 406 140.389 406 134.866C406 129.343 401.523 124.866 396 124.866C390.477 124.866 386 129.343 386 134.866C386 140.389 390.477 144.866 396 144.866Z" fill="#847855"/>
<path d="M396 138.866C394.939 138.866 393.922 138.445 393.172 137.694C392.421 136.944 392 135.927 392 134.866V29.906C392 28.8451 392.421 27.8277 393.172 27.0776C393.922 26.3274 394.939 25.906 396 25.906C397.061 25.906 398.078 26.3274 398.828 27.0776C399.579 27.8277 400 28.8451 400 29.906V134.866C400 135.927 399.579 136.944 398.828 137.694C398.078 138.445 397.061 138.866 396 138.866Z" fill="#414042"/>
</svg>
