<svg width="512" height="512" viewBox="0 0 512 512" fill="none" xmlns="http://www.w3.org/2000/svg">
<g clip-path="url(#clip0_402_2)">
<path d="M253.484 166.788L241.207 47.88H151.192L138.915 166.788C138.275 172.985 136.155 178.937 132.733 184.142C129.31 189.347 124.687 193.653 119.251 196.697L92.8442 211.485C61.3542 229.12 44.1312 264.46 49.6442 300.128L76.9942 477.074C80.1002 497.168 97.3952 511.996 117.728 511.996H274.671C295.004 511.996 312.299 497.169 315.405 477.074L342.755 300.128C348.268 264.46 331.045 229.12 299.555 211.485L273.148 196.697C267.713 193.653 263.089 189.347 259.667 184.142C256.245 178.936 254.124 172.985 253.484 166.788Z" fill="url(#paint0_linear_402_2)"/>
<path d="M250.962 142.32H141.438L151.194 47.88H241.206L250.962 142.32Z" fill="url(#paint1_linear_402_2)"/>
<path d="M250.962 142.32H141.438L151.194 47.88H241.206L250.962 142.32Z" fill="url(#paint2_linear_402_2)"/>
<path d="M342.753 300.125L315.405 477.073C312.301 497.172 295.002 512 274.666 512H117.733C97.3975 512 80.0995 497.172 76.9955 477.072L49.6475 300.125C44.1305 264.459 61.3535 229.124 92.8455 211.486L119.247 196.695C124.683 193.653 129.308 189.349 132.73 184.144C136.152 178.94 138.273 172.988 138.911 166.792L141.438 142.321H250.962L253.489 166.792C254.128 172.988 256.248 178.94 259.671 184.144C263.093 189.349 267.718 193.653 273.153 196.695L299.555 211.486C331.047 229.124 348.269 264.459 342.753 300.125Z" fill="url(#paint3_linear_402_2)"/>
<path d="M66.3369 408.109L76.9959 477.072C80.0999 497.172 97.3979 512 117.734 512H274.667C295.003 512 312.301 497.172 315.405 477.072L326.064 408.109H66.3369Z" fill="url(#paint4_linear_402_2)"/>
<path d="M66.3369 408.109L76.9959 477.072C80.0999 497.172 97.3979 512 117.734 512H274.667C295.003 512 312.301 497.172 315.405 477.072L326.064 408.109H66.3369Z" fill="url(#paint5_linear_402_2)"/>
<path d="M299.555 211.485L273.153 196.694C267.717 193.652 263.092 189.348 259.67 184.143C256.248 178.939 254.127 172.987 253.489 166.791L250.962 142.32H160.643V512H274.666C295.002 512 312.3 497.172 315.404 477.072L342.752 300.124C348.27 264.459 331.048 229.124 299.555 211.485Z" fill="url(#paint6_linear_402_2)"/>
<path d="M248.277 77.5109L243.825 34.3879H148.576L144.124 77.5109C143.376 84.7539 149.059 91.0529 156.34 91.0529H236.062C243.343 91.0539 249.025 84.7539 248.277 77.5109Z" fill="url(#paint7_linear_402_2)"/>
<path d="M248.277 77.5109L243.825 34.3879H148.576L144.124 77.5109C143.376 84.7539 149.059 91.0529 156.34 91.0529H236.062C243.343 91.0539 249.025 84.7539 248.277 77.5109Z" fill="url(#paint8_linear_402_2)"/>
<path d="M248.277 77.5109L243.825 34.3879H148.576L144.124 77.5109C143.376 84.7539 149.059 91.0529 156.34 91.0529H236.062C243.343 91.0539 249.025 84.7539 248.277 77.5109Z" fill="url(#paint9_linear_402_2)"/>
<path d="M243.825 34.3879H192.35V91.0529H236.062C243.343 91.0529 249.026 84.7539 248.278 77.5109L243.825 34.3879Z" fill="url(#paint10_linear_402_2)"/>
<path d="M237.88 45.414L154.534 45.437C143.681 45.442 135.588 35.435 137.862 24.823L140.427 12.852C141.205 9.22145 143.204 5.96736 146.091 3.63254C148.978 1.29772 152.578 0.0233451 156.291 0.0220013L236.083 1.30902e-06C239.796 -0.00148917 243.397 1.26987 246.286 3.60208C249.175 5.93429 251.177 9.18637 251.958 12.816L254.534 24.785C256.818 35.395 248.733 45.409 237.88 45.414Z" fill="url(#paint11_linear_402_2)"/>
<path d="M237.88 45.414L154.534 45.437C143.681 45.442 135.588 35.435 137.862 24.823L140.427 12.852C141.205 9.22145 143.204 5.96736 146.091 3.63254C148.978 1.29772 152.578 0.0233451 156.291 0.0220013L236.083 1.30902e-06C239.796 -0.00148917 243.397 1.26987 246.286 3.60208C249.175 5.93429 251.177 9.18637 251.958 12.816L254.534 24.785C256.818 35.395 248.733 45.409 237.88 45.414Z" fill="url(#paint12_linear_402_2)"/>
<path d="M335.385 310.898H248.623L208.098 270.373C201.527 263.802 190.873 263.802 184.302 270.373L143.777 310.898H57.0156C50.6756 310.898 45.8416 316.574 46.8516 322.833L59.9276 403.867C60.3175 406.282 61.5544 408.479 63.4168 410.065C65.2793 411.651 67.6455 412.522 70.0916 412.522H143.778L184.303 453.047C190.874 459.618 201.528 459.618 208.099 453.047L248.624 412.522H322.31C327.363 412.522 331.669 408.855 332.474 403.867L345.55 322.833C346.559 316.574 341.725 310.898 335.385 310.898Z" fill="url(#paint13_linear_402_2)"/>
<path d="M335.384 310.898H248.622L208.097 270.373C203.577 265.853 197.124 264.442 191.398 266.141V457.278C197.124 458.977 203.576 457.567 208.097 453.046L248.622 412.521H322.308C327.361 412.521 331.667 408.854 332.472 403.866L345.548 322.832C346.558 316.574 341.724 310.898 335.384 310.898Z" fill="url(#paint14_linear_402_2)"/>
<path d="M185.784 441.676L116.235 372.127C110.482 366.374 110.482 357.047 116.235 351.294L185.784 281.745C191.537 275.992 200.864 275.992 206.617 281.745L276.166 351.294C281.919 357.047 281.919 366.374 276.166 372.127L206.617 441.676C200.864 447.429 191.537 447.429 185.784 441.676Z" fill="url(#paint15_linear_402_2)"/>
<path d="M234.012 368.8L158.318 368.659C151.296 368.646 145.614 362.943 145.628 355.921L145.652 342.911C145.665 335.889 151.368 330.207 158.39 330.221L234.084 330.362C241.106 330.375 246.788 336.078 246.774 343.1L246.75 356.11C246.737 363.132 241.034 368.813 234.012 368.8Z" fill="url(#paint16_linear_402_2)"/>
<path d="M171.527 380.391L153.356 380.357C151.674 380.354 150.059 381.019 148.867 382.206C147.675 383.394 147.004 385.006 147.001 386.688C146.998 388.37 147.663 389.985 148.85 391.177C150.038 392.369 151.65 393.04 153.332 393.043L171.503 393.077C173.185 393.08 174.8 392.415 175.992 391.228C177.183 390.04 177.855 388.428 177.858 386.746C177.861 385.064 177.196 383.449 176.009 382.257C174.821 381.066 173.209 380.394 171.527 380.391Z" fill="url(#paint17_linear_402_2)"/>
<path d="M236.934 380.513L190.899 380.427C189.217 380.424 187.602 381.089 186.41 382.276C185.218 383.464 184.547 385.076 184.544 386.758C184.541 388.44 185.206 390.055 186.393 391.247C187.581 392.439 189.193 393.11 190.875 393.113L236.91 393.199C237.743 393.201 238.568 393.038 239.338 392.721C240.108 392.403 240.809 391.938 241.399 391.35C241.989 390.762 242.457 390.063 242.778 389.294C243.098 388.525 243.263 387.701 243.265 386.868C243.267 386.035 243.104 385.21 242.787 384.44C242.469 383.67 242.004 382.969 241.416 382.379C240.828 381.789 240.129 381.321 239.36 381C238.591 380.68 237.767 380.515 236.934 380.513Z" fill="url(#paint18_linear_402_2)"/>
<path d="M234.012 368.8L158.318 368.659C151.296 368.646 145.614 362.943 145.628 355.921L145.652 342.911C145.665 335.889 151.368 330.207 158.39 330.221L234.084 330.362C241.106 330.375 246.788 336.078 246.774 343.1L246.75 356.11C246.737 363.132 241.034 368.813 234.012 368.8Z" fill="url(#paint19_linear_402_2)"/>
<path d="M234.084 330.362L194.759 330.289L194.687 368.727L234.012 368.8C241.034 368.813 246.737 363.131 246.75 356.11L246.774 343.1C246.787 336.078 241.105 330.375 234.084 330.362Z" fill="url(#paint20_linear_402_2)"/>
<path d="M454.243 362.908C461.009 362.908 466.183 368.941 465.15 375.628L447.97 486.801C445.732 501.308 433.253 512 418.586 512H305.372C290.705 512 278.227 501.308 275.988 486.801L258.81 375.628C257.777 368.941 262.949 362.908 269.716 362.908H454.243Z" fill="url(#paint21_linear_402_2)"/>
<path d="M322.736 512H305.378C301.432 512 297.658 511.227 294.184 509.812L291.598 490.749C290.401 481.926 297.261 474.073 306.165 474.073C313.837 474.073 320.219 479.973 320.82 487.621L322.736 512Z" fill="url(#paint22_linear_402_2)"/>
<path d="M358.324 512H330.053L328.625 489.711C328.082 481.24 334.807 474.071 343.295 474.071H343.451C351.527 474.071 358.091 480.586 358.151 488.662L358.324 512Z" fill="url(#paint23_linear_402_2)"/>
<path d="M395.332 489.711L393.904 512H365.644L365.811 488.667C365.869 480.59 372.433 474.072 380.511 474.072H380.663C389.15 474.072 395.874 481.241 395.332 489.711Z" fill="url(#paint24_linear_402_2)"/>
<path d="M432.361 490.748L429.774 509.822C426.221 511.263 422.423 512.003 418.59 512.001H401.222L403.139 487.621C403.74 479.973 410.122 474.073 417.794 474.073H417.795C426.698 474.072 433.558 481.925 432.361 490.748Z" fill="url(#paint25_linear_402_2)"/>
<path d="M265.396 418.248L275.989 486.802C278.227 501.308 290.705 512 305.372 512H418.585C433.252 512 445.731 501.308 447.97 486.801L458.562 418.247L265.396 418.248Z" fill="url(#paint26_linear_402_2)"/>
<path d="M325.457 412.029L315.408 477.073C313.199 491.339 303.843 502.944 291.334 508.476C283.333 504.189 277.46 496.319 275.994 486.801L264.509 412.521H322.305C323.398 412.521 324.463 412.351 325.457 412.029Z" fill="url(#paint27_linear_402_2)"/>
<path d="M454.244 362.908H345.268V512H418.586C433.253 512 445.732 501.308 447.971 486.801L465.15 375.627C466.183 368.941 461.01 362.908 454.244 362.908Z" fill="url(#paint28_linear_402_2)"/>
<path d="M435.576 420.636C440.01 420.636 443.399 424.589 442.722 428.971L436.973 466.174C435.015 478.823 424.133 488.15 411.343 488.15H312.617C299.827 488.15 288.944 478.824 286.987 466.174L281.238 428.971C280.561 424.59 283.95 420.636 288.384 420.636H435.576Z" fill="url(#paint29_linear_402_2)"/>
<path d="M320.858 488.147H312.616C309.169 488.148 305.756 487.461 302.578 486.127C299.399 484.793 296.519 482.838 294.104 480.377C296.734 476.592 301.122 474.072 306.161 474.072C309.996 474.072 313.51 475.548 316.14 477.977C318.861 480.484 320.532 483.927 320.818 487.615L320.858 488.147Z" fill="url(#paint30_linear_402_2)"/>
<path d="M358.143 488.147H328.618C328.929 480.377 335.344 474.072 343.295 474.072H343.456C351.357 474.072 357.812 480.316 358.143 488.147Z" fill="url(#paint31_linear_402_2)"/>
<path d="M395.338 488.147H365.823C366.144 480.306 372.599 474.072 380.51 474.072H380.661C388.612 474.072 395.027 480.376 395.338 488.147Z" fill="url(#paint32_linear_402_2)"/>
<path d="M429.854 480.376C425.115 485.195 418.53 488.146 411.342 488.146H403.1L403.14 487.614C403.742 479.974 410.117 474.071 417.797 474.071C422.837 474.072 427.224 476.592 429.854 480.376Z" fill="url(#paint33_linear_402_2)"/>
<path d="M282.75 438.763L286.986 466.173C288.944 478.822 299.826 488.149 312.616 488.149H411.342C424.132 488.149 435.014 478.823 436.972 466.173L441.208 438.763H282.75Z" fill="url(#paint34_linear_402_2)"/>
<path d="M435.575 420.636H360.535V488.15H411.341C424.131 488.15 435.013 478.824 436.971 466.174L442.721 428.971C443.397 424.589 440.008 420.636 435.575 420.636Z" fill="url(#paint35_linear_402_2)"/>
<path d="M269.715 362.908C262.949 362.908 257.776 368.941 258.809 375.628L264.51 412.523H322.308C327.361 412.523 331.667 408.856 332.472 403.868L339.082 362.909H269.715V362.908Z" fill="url(#paint36_linear_402_2)"/>
<path d="M312.046 488.124C313.68 484.617 314.811 480.897 315.407 477.074L324.127 420.636H288.383C283.949 420.636 280.56 424.589 281.237 428.971L286.987 466.174C288.914 478.633 299.506 487.849 312.046 488.124Z" fill="url(#paint37_linear_402_2)"/>
</g>
<defs>
<linearGradient id="paint0_linear_402_2" x1="171.437" y1="279.938" x2="227.553" y2="279.938" gradientUnits="userSpaceOnUse">
<stop stop-color="#EAF9FA"/>
<stop offset="1" stop-color="#B4D2E2"/>
</linearGradient>
<linearGradient id="paint1_linear_402_2" x1="211.138" y1="93.751" x2="248.016" y2="88.804" gradientUnits="userSpaceOnUse">
<stop stop-color="#528FD8" stop-opacity="0"/>
<stop offset="0.219" stop-color="#4E8ED8" stop-opacity="0.219"/>
<stop offset="0.451" stop-color="#4189D6" stop-opacity="0.451"/>
<stop offset="0.69" stop-color="#2C81D3" stop-opacity="0.69"/>
<stop offset="0.931" stop-color="#0E76CF" stop-opacity="0.931"/>
<stop offset="1" stop-color="#0473CE"/>
</linearGradient>
<linearGradient id="paint2_linear_402_2" x1="198.803" y1="111.025" x2="202.851" y2="82.692" gradientUnits="userSpaceOnUse">
<stop stop-color="#528FD8" stop-opacity="0"/>
<stop offset="0.219" stop-color="#4E8ED8" stop-opacity="0.219"/>
<stop offset="0.451" stop-color="#4189D6" stop-opacity="0.451"/>
<stop offset="0.69" stop-color="#2C81D3" stop-opacity="0.69"/>
<stop offset="0.931" stop-color="#0E76CF" stop-opacity="0.931"/>
<stop offset="1" stop-color="#0473CE"/>
</linearGradient>
<linearGradient id="paint3_linear_402_2" x1="122.867" y1="327.16" x2="319.207" y2="327.16" gradientUnits="userSpaceOnUse">
<stop stop-color="#C86D36"/>
<stop offset="0.184" stop-color="#C06937"/>
<stop offset="0.478" stop-color="#A95F3B"/>
<stop offset="0.845" stop-color="#834D41"/>
<stop offset="1" stop-color="#704444"/>
</linearGradient>
<linearGradient id="paint4_linear_402_2" x1="196.201" y1="455.33" x2="196.201" y2="512.396" gradientUnits="userSpaceOnUse">
<stop stop-color="#593636" stop-opacity="0"/>
<stop offset="0.36" stop-color="#583533" stop-opacity="0.361"/>
<stop offset="0.621" stop-color="#53302A" stop-opacity="0.621"/>
<stop offset="0.848" stop-color="#4A281A" stop-opacity="0.848"/>
<stop offset="1" stop-color="#42210B"/>
</linearGradient>
<linearGradient id="paint5_linear_402_2" x1="193.961" y1="471.731" x2="196.346" y2="403.981" gradientUnits="userSpaceOnUse">
<stop stop-color="#593636" stop-opacity="0"/>
<stop offset="0.36" stop-color="#583533" stop-opacity="0.361"/>
<stop offset="0.621" stop-color="#53302A" stop-opacity="0.621"/>
<stop offset="0.848" stop-color="#4A281A" stop-opacity="0.848"/>
<stop offset="1" stop-color="#42210B"/>
</linearGradient>
<linearGradient id="paint6_linear_402_2" x1="265.603" y1="334.06" x2="335.76" y2="342.155" gradientUnits="userSpaceOnUse">
<stop stop-color="#593636" stop-opacity="0"/>
<stop offset="0.36" stop-color="#583533" stop-opacity="0.361"/>
<stop offset="0.621" stop-color="#53302A" stop-opacity="0.621"/>
<stop offset="0.848" stop-color="#4A281A" stop-opacity="0.848"/>
<stop offset="1" stop-color="#42210B"/>
</linearGradient>
<linearGradient id="paint7_linear_402_2" x1="187.451" y1="62.7209" x2="207.279" y2="62.7209" gradientUnits="userSpaceOnUse">
<stop stop-color="#FEF0AE"/>
<stop offset="1" stop-color="#FAC600"/>
</linearGradient>
<linearGradient id="paint8_linear_402_2" x1="196.524" y1="71.4479" x2="197.873" y2="40.7539" gradientUnits="userSpaceOnUse">
<stop stop-color="#FEA613" stop-opacity="0"/>
<stop offset="0.203" stop-color="#FDA215" stop-opacity="0.203"/>
<stop offset="0.405" stop-color="#FB961B" stop-opacity="0.405"/>
<stop offset="0.607" stop-color="#F68225" stop-opacity="0.607"/>
<stop offset="0.807" stop-color="#F06633" stop-opacity="0.807"/>
<stop offset="1" stop-color="#E94444"/>
</linearGradient>
<linearGradient id="paint9_linear_402_2" x1="195.543" y1="67.2199" x2="197.23" y2="96.9009" gradientUnits="userSpaceOnUse">
<stop stop-color="#FEA613" stop-opacity="0"/>
<stop offset="0.203" stop-color="#FDA215" stop-opacity="0.203"/>
<stop offset="0.405" stop-color="#FB961B" stop-opacity="0.405"/>
<stop offset="0.607" stop-color="#F68225" stop-opacity="0.607"/>
<stop offset="0.807" stop-color="#F06633" stop-opacity="0.807"/>
<stop offset="1" stop-color="#E94444"/>
</linearGradient>
<linearGradient id="paint10_linear_402_2" x1="205.831" y1="63.0499" x2="249.342" y2="61.3639" gradientUnits="userSpaceOnUse">
<stop stop-color="#FEA613" stop-opacity="0"/>
<stop offset="0.203" stop-color="#FDA215" stop-opacity="0.203"/>
<stop offset="0.405" stop-color="#FB961B" stop-opacity="0.405"/>
<stop offset="0.607" stop-color="#F68225" stop-opacity="0.607"/>
<stop offset="0.807" stop-color="#F06633" stop-opacity="0.807"/>
<stop offset="1" stop-color="#E94444"/>
</linearGradient>
<linearGradient id="paint11_linear_402_2" x1="162.206" y1="22.775" x2="232.482" y2="22.775" gradientUnits="userSpaceOnUse">
<stop stop-color="#FEF0AE"/>
<stop offset="1" stop-color="#FAC600"/>
</linearGradient>
<linearGradient id="paint12_linear_402_2" x1="196.221" y1="29.074" x2="196.895" y2="49.986" gradientUnits="userSpaceOnUse">
<stop stop-color="#FEA613" stop-opacity="0"/>
<stop offset="0.203" stop-color="#FDA215" stop-opacity="0.203"/>
<stop offset="0.405" stop-color="#FB961B" stop-opacity="0.405"/>
<stop offset="0.607" stop-color="#F68225" stop-opacity="0.607"/>
<stop offset="0.807" stop-color="#F06633" stop-opacity="0.807"/>
<stop offset="1" stop-color="#E94444"/>
</linearGradient>
<linearGradient id="paint13_linear_402_2" x1="128.421" y1="361.71" x2="291.593" y2="361.71" gradientUnits="userSpaceOnUse">
<stop stop-color="#537983"/>
<stop offset="1" stop-color="#384949"/>
</linearGradient>
<linearGradient id="paint14_linear_402_2" x1="287.236" y1="382.624" x2="322.542" y2="390.734" gradientUnits="userSpaceOnUse">
<stop stop-color="#1A1A1A" stop-opacity="0"/>
<stop offset="1" stop-color="#1A1A1A"/>
</linearGradient>
<linearGradient id="paint15_linear_402_2" x1="166.247" y1="331.756" x2="228.134" y2="393.643" gradientUnits="userSpaceOnUse">
<stop stop-color="#EAF9FA"/>
<stop offset="1" stop-color="#B4D2E2"/>
</linearGradient>
<linearGradient id="paint16_linear_402_2" x1="189.254" y1="328.967" x2="208.178" y2="380.415" gradientUnits="userSpaceOnUse">
<stop stop-color="#FEF0AE"/>
<stop offset="1" stop-color="#FAC600"/>
</linearGradient>
<linearGradient id="paint17_linear_402_2" x1="156.114" y1="363.23" x2="171.697" y2="415.902" gradientUnits="userSpaceOnUse">
<stop stop-color="#537983"/>
<stop offset="1" stop-color="#384949"/>
</linearGradient>
<linearGradient id="paint18_linear_402_2" x1="203.027" y1="347.814" x2="221.309" y2="409.606" gradientUnits="userSpaceOnUse">
<stop stop-color="#537983"/>
<stop offset="1" stop-color="#384949"/>
</linearGradient>
<linearGradient id="paint19_linear_402_2" x1="196.355" y1="345.007" x2="195.455" y2="371.335" gradientUnits="userSpaceOnUse">
<stop stop-color="#FEA613" stop-opacity="0"/>
<stop offset="0.203" stop-color="#FDA215" stop-opacity="0.203"/>
<stop offset="0.405" stop-color="#FB961B" stop-opacity="0.405"/>
<stop offset="0.607" stop-color="#F68225" stop-opacity="0.607"/>
<stop offset="0.807" stop-color="#F06633" stop-opacity="0.807"/>
<stop offset="1" stop-color="#E94444"/>
</linearGradient>
<linearGradient id="paint20_linear_402_2" x1="216.598" y1="349.544" x2="250.519" y2="349.544" gradientUnits="userSpaceOnUse">
<stop stop-color="#FEA613" stop-opacity="0"/>
<stop offset="0.203" stop-color="#FDA215" stop-opacity="0.203"/>
<stop offset="0.405" stop-color="#FB961B" stop-opacity="0.405"/>
<stop offset="0.607" stop-color="#F68225" stop-opacity="0.607"/>
<stop offset="0.807" stop-color="#F06633" stop-opacity="0.807"/>
<stop offset="1" stop-color="#E94444"/>
</linearGradient>
<linearGradient id="paint21_linear_402_2" x1="325.707" y1="437.454" x2="429.45" y2="437.454" gradientUnits="userSpaceOnUse">
<stop stop-color="#EAF9FA"/>
<stop offset="1" stop-color="#B4D2E2"/>
</linearGradient>
<linearGradient id="paint22_linear_402_2" x1="321.293" y1="493.036" x2="291.574" y2="493.036" gradientUnits="userSpaceOnUse">
<stop stop-color="#EAF9FA"/>
<stop offset="1" stop-color="#B4D2E2"/>
</linearGradient>
<linearGradient id="paint23_linear_402_2" x1="359.223" y1="493.036" x2="329.06" y2="493.036" gradientUnits="userSpaceOnUse">
<stop stop-color="#EAF9FA"/>
<stop offset="1" stop-color="#B4D2E2"/>
</linearGradient>
<linearGradient id="paint24_linear_402_2" x1="394.291" y1="493.036" x2="369.601" y2="493.036" gradientUnits="userSpaceOnUse">
<stop stop-color="#EAF9FA"/>
<stop offset="1" stop-color="#B4D2E2"/>
</linearGradient>
<linearGradient id="paint25_linear_402_2" x1="437.231" y1="493.036" x2="405.74" y2="493.036" gradientUnits="userSpaceOnUse">
<stop stop-color="#EAF9FA"/>
<stop offset="1" stop-color="#B4D2E2"/>
</linearGradient>
<linearGradient id="paint26_linear_402_2" x1="361.98" y1="483.731" x2="361.98" y2="515.651" gradientUnits="userSpaceOnUse">
<stop stop-color="#528FD8" stop-opacity="0"/>
<stop offset="0.219" stop-color="#4E8ED8" stop-opacity="0.219"/>
<stop offset="0.451" stop-color="#4189D6" stop-opacity="0.451"/>
<stop offset="0.69" stop-color="#2C81D3" stop-opacity="0.69"/>
<stop offset="0.931" stop-color="#0E76CF" stop-opacity="0.931"/>
<stop offset="1" stop-color="#0473CE"/>
</linearGradient>
<linearGradient id="paint27_linear_402_2" x1="257.27" y1="428.877" x2="334.741" y2="476.468" gradientUnits="userSpaceOnUse">
<stop stop-color="#593636" stop-opacity="0"/>
<stop offset="0.36" stop-color="#583533" stop-opacity="0.361"/>
<stop offset="0.621" stop-color="#53302A" stop-opacity="0.621"/>
<stop offset="0.848" stop-color="#4A281A" stop-opacity="0.848"/>
<stop offset="1" stop-color="#42210B"/>
</linearGradient>
<linearGradient id="paint28_linear_402_2" x1="421.299" y1="440.378" x2="465.313" y2="446.461" gradientUnits="userSpaceOnUse">
<stop stop-color="#528FD8" stop-opacity="0"/>
<stop offset="0.219" stop-color="#4E8ED8" stop-opacity="0.219"/>
<stop offset="0.451" stop-color="#4189D6" stop-opacity="0.451"/>
<stop offset="0.69" stop-color="#2C81D3" stop-opacity="0.69"/>
<stop offset="0.931" stop-color="#0E76CF" stop-opacity="0.931"/>
<stop offset="1" stop-color="#0473CE"/>
</linearGradient>
<linearGradient id="paint29_linear_402_2" x1="333.597" y1="454.393" x2="414.772" y2="454.393" gradientUnits="userSpaceOnUse">
<stop stop-color="#FEF0AE"/>
<stop offset="1" stop-color="#FAC600"/>
</linearGradient>
<linearGradient id="paint30_linear_402_2" x1="319.624" y1="481.109" x2="294.199" y2="481.109" gradientUnits="userSpaceOnUse">
<stop stop-color="#FEF0AE"/>
<stop offset="1" stop-color="#FAC600"/>
</linearGradient>
<linearGradient id="paint31_linear_402_2" x1="359.036" y1="481.109" x2="329.08" y2="481.109" gradientUnits="userSpaceOnUse">
<stop stop-color="#FEF0AE"/>
<stop offset="1" stop-color="#FAC600"/>
</linearGradient>
<linearGradient id="paint32_linear_402_2" x1="394.275" y1="481.109" x2="369.753" y2="481.109" gradientUnits="userSpaceOnUse">
<stop stop-color="#FEF0AE"/>
<stop offset="1" stop-color="#FAC600"/>
</linearGradient>
<linearGradient id="paint33_linear_402_2" x1="433.904" y1="481.109" x2="406.964" y2="481.109" gradientUnits="userSpaceOnUse">
<stop stop-color="#FEF0AE"/>
<stop offset="1" stop-color="#FAC600"/>
</linearGradient>
<linearGradient id="paint34_linear_402_2" x1="361.979" y1="459.279" x2="361.979" y2="494.161" gradientUnits="userSpaceOnUse">
<stop stop-color="#FEA613" stop-opacity="0"/>
<stop offset="0.203" stop-color="#FDA215" stop-opacity="0.203"/>
<stop offset="0.405" stop-color="#FB961B" stop-opacity="0.405"/>
<stop offset="0.607" stop-color="#F68225" stop-opacity="0.607"/>
<stop offset="0.807" stop-color="#F06633" stop-opacity="0.807"/>
<stop offset="1" stop-color="#E94444"/>
</linearGradient>
<linearGradient id="paint35_linear_402_2" x1="413.247" y1="456.787" x2="439.965" y2="461.081" gradientUnits="userSpaceOnUse">
<stop stop-color="#FEA613" stop-opacity="0"/>
<stop offset="0.203" stop-color="#FDA215" stop-opacity="0.203"/>
<stop offset="0.405" stop-color="#FB961B" stop-opacity="0.405"/>
<stop offset="0.607" stop-color="#F68225" stop-opacity="0.607"/>
<stop offset="0.807" stop-color="#F06633" stop-opacity="0.807"/>
<stop offset="1" stop-color="#E94444"/>
</linearGradient>
<linearGradient id="paint36_linear_402_2" x1="258.477" y1="373.34" x2="364.873" y2="408.646" gradientUnits="userSpaceOnUse">
<stop stop-color="#1A1A1A" stop-opacity="0"/>
<stop offset="1" stop-color="#1A1A1A"/>
</linearGradient>
<linearGradient id="paint37_linear_402_2" x1="293.705" y1="435.841" x2="343.325" y2="483.075" gradientUnits="userSpaceOnUse">
<stop stop-color="#FEA613" stop-opacity="0"/>
<stop offset="0.203" stop-color="#FDA215" stop-opacity="0.203"/>
<stop offset="0.405" stop-color="#FB961B" stop-opacity="0.405"/>
<stop offset="0.607" stop-color="#F68225" stop-opacity="0.607"/>
<stop offset="0.807" stop-color="#F06633" stop-opacity="0.807"/>
<stop offset="1" stop-color="#E94444"/>
</linearGradient>
<clipPath id="clip0_402_2">
<rect width="512" height="512" fill="white"/>
</clipPath>
</defs>
</svg>
