<svg version="1.2" xmlns="http://www.w3.org/2000/svg" viewBox="0 0 193 143" width="193" height="143">
	<title>&lt;Group&gt;</title>
	<defs>
		<radialGradient id="g1" cx="98.6" cy="32.5" r="98.9" gradientUnits="userSpaceOnUse">
			<stop offset="0" stop-color="#c0633b"/>
			<stop offset="1" stop-color="#9f3437"/>
		</radialGradient>
		<radialGradient id="g2" cx="132.2" cy="70.3" r="50" gradientUnits="userSpaceOnUse">
			<stop offset="0" stop-color="#6e5868"/>
			<stop offset=".9" stop-color="#3e2645"/>
		</radialGradient>
		<radialGradient id="g3" cx="25" cy="71.7" r="41.1" gradientUnits="userSpaceOnUse">
			<stop offset="0" stop-color="#a1929d"/>
			<stop offset=".9" stop-color="#3e2645"/>
		</radialGradient>
		<radialGradient id="g4" cx="24.3" cy="71.7" r="41.1" gradientUnits="userSpaceOnUse">
			<stop offset="0" stop-color="#6e5868"/>
			<stop offset=".9" stop-color="#3e2645"/>
		</radialGradient>
		<radialGradient id="g5" cx="17.1" cy="76.5" r="37.8" gradientUnits="userSpaceOnUse">
			<stop offset="0" stop-color="#6e5868"/>
			<stop offset=".9" stop-color="#3e2645"/>
		</radialGradient>
		<radialGradient id="g6" cx="23.4" cy="23.1" r="2.9" gradientUnits="userSpaceOnUse">
			<stop offset="0" stop-color="#6e5868"/>
			<stop offset=".9" stop-color="#3e2645"/>
		</radialGradient>
		<linearGradient id="g7" x1="73.2" y1="126.6" x2="73.2" y2="14" gradientUnits="userSpaceOnUse">
			<stop offset="0" stop-color="#c0633b"/>
			<stop offset="1" stop-color="#9f3437"/>
		</linearGradient>
		<radialGradient id="g8" cx="97.7" cy="70" r="51.1" gradientUnits="userSpaceOnUse">
			<stop offset="0" stop-color="#a1929d"/>
			<stop offset=".9" stop-color="#3e2645"/>
		</radialGradient>
		<radialGradient id="g9" cx="97" cy="70" r="51.1" gradientUnits="userSpaceOnUse">
			<stop offset="0" stop-color="#6e5868"/>
			<stop offset=".9" stop-color="#3e2645"/>
		</radialGradient>
	</defs>
	<style>
		.s0 { fill: #691e35 } 
		.s1 { fill: #c76631 } 
		.s2 { fill: #9f3437 } 
		.s3 { fill: url(#g1) } 
		.s4 { fill: #7c1338 } 
		.s5 { opacity: .2;mix-blend-mode: multiply;fill: #9b2c3a } 
		.s6 { fill: url(#g2) } 
		.s7 { fill: url(#g3) } 
		.s8 { fill: url(#g4) } 
		.s9 { fill: url(#g5) } 
		.s10 { fill: url(#g6) } 
		.s11 { fill: #d58e57 } 
		.s12 { fill: url(#g7) } 
		.s13 { fill: #ae4b63 } 
		.s14 { fill: url(#g8) } 
		.s15 { fill: url(#g9) } 
		.s16 { opacity: .5;mix-blend-mode: soft-light;fill: #ffffff } 
		.s17 { opacity: .2;mix-blend-mode: multiply;fill: #d88191 } 
		.s18 { opacity: .3;mix-blend-mode: multiply;fill: #680b3a } 
		.s19 { fill: #972751 } 
		.s20 { fill: #e6c5c5 } 
		.s21 { fill: #c993a1 } 
		.s22 { opacity: .5;fill: #9b2c3a } 
		.s23 { opacity: .7;fill: #621a3a } 
	</style>
	<g id="&lt;Group&gt;">
		<path id="&lt;Path&gt;" class="s0" d="m70.6 138.5v4.3h53.5l-1.1-5.4z"/>
		<path id="&lt;Path&gt;" class="s0" d="m139.6 142.8h-13.4v-6.1l12.5-3.5z"/>
		<path id="&lt;Path&gt;" class="s1" d="m139.6 142.8h28.9l-7.1-16.2c0 0-9.8 4.6-22.7 6.6z"/>
		<g id="&lt;Group&gt;">
			<path id="&lt;Path&gt;" class="s2" d="m80.4 73c0 30.8-17.8 55.7-39.7 55.7q-4.1 0-8-1.1c-12.3-3.5-22.5-15-27.8-30.4q0-0.1-0.1-0.2c-2.5-7.3-3.8-15.4-3.8-24 0-7 0.9-13.7 2.5-19.8 2.7-10 7.4-18.6 13.4-24.9q1.7-1.8 3.5-3.3 3-2.5 6.3-4.3c4.3-2.3 9-3.5 14-3.5 21.9 0 39.7 25 39.7 55.8z"/>
			<path id="&lt;Path&gt;" class="s3" d="m163.1 125.9c0 0-8.1 3.7-21.2 7.3-24.5 6.6-66.5 12.9-107.5-4.8q-4-1.8-7.9-3.8-2.3-1.1-4.5-2.4l-1.1-6.3-6.9-40.4 5.7-43.2 1.1-7.6q3.1-2.2 6.2-4.1 0 0 0.1 0 5.1-3.1 10.2-5.7 0 0 0 0c42.4-21.1 85.4-14.7 109.4-7.2 10.1 3.2 16.8 6.5 18.6 8.1 0 0-0.2 19.9 1.7 52.3 2.1 39-3.9 57.8-3.9 57.8z"/>
			<g id="&lt;Group&gt;">
				<path id="&lt;Path&gt;" class="s4" d="m35.7 87.7c-10.7 0-22-0.4-33.7-1.5l0.1-0.5c54.1 5 101.5-4.1 102-4.2l0.1 0.5c-0.4 0-29.7 5.7-68.5 5.7z"/>
			</g>
			<g id="&lt;Group&gt;">
				<path id="&lt;Path&gt;" class="s4" d="m1.5 64.7l-0.2-0.5c0.4-0.2 36.3-19 102.1-19q2 0 4 0v0.5c-68.3-0.8-105.5 18.8-105.9 19z"/>
			</g>
			<g id="&lt;Group&gt;">
				<path id="&lt;Path&gt;" class="s4" d="m7.5 42.7l-0.3-0.4c0.2 0 11-7.1 30.8-13.3 18.2-5.8 47.9-12 86.2-9l-0.1 0.5c-38.1-3-67.8 3.2-86 8.9-19.7 6.3-30.5 13.3-30.6 13.3z"/>
			</g>
			<path id="&lt;Path&gt;" class="s5" d="m25 87.3c0 0 25.4-36.5 68.2-41.7l7.5-0.1c0 0-29 11.2-61.1 41.8z"/>
			<g id="&lt;Group&gt;">
				<path id="&lt;Path&gt;" class="s4" d="m14.2 31.2l-0.3-0.4c0.1-0.1 13.1-10.7 36.6-18.4 21.7-7 57.2-13.1 102.5-1.5l-0.1 0.5c-45.2-11.5-80.5-5.6-102.2 1.5-23.5 7.7-36.4 18.2-36.5 18.3z"/>
			</g>
			<g id="&lt;Group&gt;">
				<path id="&lt;Path&gt;" class="s4" d="m74.5 113.1c-42 0-68.3-12.6-68.6-12.7l0.2-0.5c0.4 0.2 43.7 20.9 108.1 9l0.1 0.5c-14.4 2.7-27.8 3.7-39.8 3.7z"/>
			</g>
			<g id="&lt;Group&gt;">
				<path id="&lt;Path&gt;" class="s4" d="m92.7 131.6c-23.4 0-40.5-3-52-6.1-19.6-5.4-27.9-12.4-27.9-12.4l0.3-0.4c0.1 0.1 8.3 7 27.7 12.3 18 4.9 49.5 9.4 97.4 2.8l0.1 0.5c-17.3 2.4-32.5 3.3-45.6 3.3z"/>
			</g>
			<path id="&lt;Path&gt;" class="s6" d="m163.1 125.9c0 0-8.1 3.7-21.2 7.3-24.9-0.6-44.9-28.5-44.9-62.9 0-34.7 20.4-62.9 45.6-62.9q2.1 0 4.1 0.3c10.1 3.2 16.8 6.5 18.6 8.1 0 0-0.2 19.9 1.7 52.3 2.1 39-3.9 57.8-3.9 57.8z"/>
			<path id="&lt;Path&gt;" class="s5" d="m124.1 20.2c0 0-59.2-6.7-114.6 20.1l-5.5 21.6c0 0 40.8-18.5 101.4-17.1 0 0 9.7-18.8 18.7-24.6z"/>
			<path id="&lt;Path&gt;" class="s5" d="m15 114.7c0 0 33.5 24.8 117.2 14.1l13 3.4c0 0-68.2 21.9-121.8-8.8 0 0-6.4-5.2-8.4-8.7z"/>
			<path id="&lt;Path&gt;" class="s5" d="m20 87.1c0 0 16.9-32.8 52.7-40.2h2.1c0 0-31.3 9.4-53.2 40.5z"/>
			<path id="&lt;Path&gt;" class="s5" d="m32.7 108.6c0 0 24.3 22.7 60.3 3.4l4-0.2c0 0-35.3 22.2-66.9-3.8z"/>
			<path id="&lt;Path&gt;" class="s5" d="m37.3 109.5c0 0 20.5 15.2 38.6 3.4h-3.8c0 0-20.3 7.2-34.8-3.4z"/>
			<path id="&lt;Path&gt;" class="s7" d="m16.7 73c0 23.6 7.4 44.2 18.4 55.4q-3.9-1.8-7.9-3.8c-2-2.5-3.9-5.5-5.6-8.7-5.9-11.4-9.6-26.4-9.6-42.9 0-15.4 3.2-29.6 8.5-40.7 2.1-4.4 4.6-8.3 7.3-11.7q0 0 0 0 5.1-3.1 10.2-5.7c-12.6 10.4-21.3 32.5-21.3 58.1z"/>
			<path id="&lt;Path&gt;" class="s8" d="m15.9 73c0 23.6 7.4 44.2 18.5 55.4q-4-1.8-7.9-3.8c-2-2.5-3.9-5.5-5.6-8.7-6-11.4-9.6-26.4-9.6-42.9 0-15.4 3.2-29.6 8.4-40.7 2.2-4.4 4.6-8.3 7.3-11.7q0 0 0.1 0 5.1-3.1 10.2-5.7c-12.6 10.4-21.4 32.5-21.4 58.1z"/>
			<path id="&lt;Path&gt;" class="s9" d="m32.7 127.6c-12.3-3.5-22.5-15-27.8-30.4q0-0.1-0.1-0.2c-2.2-7.4-3.4-15.6-3.4-24 0-7.4 0.7-14 2.1-19.8 2.5-10.6 7.2-18.8 13.4-24.9q1.5-1.5 3.1-2.9c-8.8 10.8-14.6 29.2-14.6 47.6 0 26.8 9.3 47.2 27.3 54.6z"/>
			<path id="&lt;Path&gt;" class="s10" d="m26.7 20.7q-3.5 2.1-6.7 4.7 0.2-0.2 0.4-0.4 3-2.5 6.3-4.3z"/>
			<path id="&lt;Path&gt;" class="s11" d="m192.5 70.3c0 32.7-20 59.1-44.6 59.1-24.7 0-44.6-26.4-44.6-59.1 0-32.7 19.9-59.1 44.6-59.1 24.6 0 44.6 26.4 44.6 59.1z"/>
			<path id="&lt;Path&gt;" class="s12" d="m190.3 70.3c0 31.1-19 56.3-42.4 56.3-23.5 0-42.5-25.2-42.5-56.3 0-31.1 19-56.3 42.5-56.3 23.4 0 42.4 25.2 42.4 56.3z"/>
			<path id="&lt;Path&gt;" class="s11" d="m185 70c0 29.2-17.8 52.8-39.8 52.8-22 0-39.8-23.6-39.8-52.8 0-29.2 17.8-52.8 39.8-52.8 22 0 39.8 23.6 39.8 52.8z"/>
			<g id="&lt;Group&gt;">
				<g id="&lt;Group&gt;">
					<path id="&lt;Path&gt;" class="s13" d="m123.9 114.8l-2.3-87.5 0.5-0.1 2.3 87.6z"/>
				</g>
				<g id="&lt;Group&gt;">
					<path id="&lt;Path&gt;" class="s13" d="m138.5 122.1l-6.5-102h0.5l6.5 102z"/>
				</g>
				<g id="&lt;Group&gt;">
					<path id="&lt;Path&gt;" class="s13" d="m158.8 119.6l-8.4-101.9h0.5l8.4 101.8z"/>
				</g>
				<g id="&lt;Group&gt;">
					<path id="&lt;Path&gt;" class="s13" d="m171.2 110.3h-0.5v-80.6h0.5z"/>
				</g>
				<g id="&lt;Group&gt;">
					<path id="&lt;Path&gt;" class="s13" d="m185 73.2h-14v-0.5h14z"/>
				</g>
			</g>
			<path id="&lt;Path&gt;" class="s0" d="m26.7 33c0 0 18.3-10 52.3-12.3 0 0-21.1 2.7-52.3 12.3z"/>
			<path id="&lt;Path&gt;" class="s0" d="m19 57.5c0 0 7.4 0.8 9.9-2.5z"/>
			<path id="&lt;Path&gt;" class="s0" d="m41.9 110.3c0 0 41.3 4.7 69.3-0.8 0 0-23.3 8.8-69.3 0.8z"/>
			<path id="&lt;Path&gt;" class="s14" d="m119.7 137.7q-0.7 0.2-1.4 0.4c-24.8-0.6-44.8-30.9-44.8-68.1 0-37.6 20.4-68.1 45.5-68.1q1.5 0 2.9 0.1c-23.9 2.2-42.8 31.8-42.8 68 0 35.1 17.7 64 40.6 67.7z"/>
			<path id="&lt;Path&gt;" class="s15" d="m119 137.7q-0.7 0.2-1.4 0.4c-24.8-0.6-44.8-30.9-44.8-68.1 0-37.6 20.4-68.1 45.6-68.1q1.4 0 2.8 0.1c-23.9 2.2-42.8 31.8-42.8 68 0 35.1 17.8 64 40.6 67.7z"/>
			<path id="&lt;Path&gt;" class="s16" d="m73.1 62.6l5.7-0.7c0 0-0.7 12.4 0.2 19.1l-5.5 0.6c0 0-1.5-12.9-0.4-19z"/>
			<path id="&lt;Path&gt;" class="s16" d="m97.4 61.9h6.3l-0.2 14.6-6.3 1.1c0 0-0.6-9.8 0.2-15.7z"/>
			<path id="&lt;Path&gt;" class="s17" d="m132.2 20.1c0 0 14.7-4.5 18.4-2.4l9.1 102.9c0 0-12.6 4.3-20.3 2.2z"/>
			<path id="&lt;Path&gt;" class="s17" d="m151.8 37l19.2 1.9v38.7l-14.8 7z"/>
			<path id="&lt;Path&gt;" class="s17" d="m123.5 91.4l13.4 1.3-0.3-4.6-13.1-4.4z"/>
			<path id="&lt;Path&gt;" class="s18" d="m105.4 70c0 0 5-39.6 38.9-44.6 33.8-5 40 34.3 40 34.3 0 0-3.1-47.4-38.3-44.8-39.8 3.1-40.6 55.1-40.6 55.1z"/>
			<path id="&lt;Path&gt;" class="s19" d="m137.9 121.9l0.3-10.3 1.2 10.7c0 0-0.8-0.2-1.5-0.4z"/>
		</g>
		<g id="&lt;Group&gt;">
			<path id="&lt;Path&gt;" class="s20" d="m155.3 41c0 6.2-4.2 11.3-9.3 11.3-5.2 0-9.4-5.1-9.4-11.3 0-6.2 4.2-11.2 9.4-11.2 5.1 0 9.3 5 9.3 11.2z"/>
			<g id="&lt;Group&gt;">
				<path id="&lt;Compound Path&gt;" fill-rule="evenodd" class="s13" d="m146.4 50.5c-4.4 0-7.9-4.3-7.9-9.5 0-5.2 3.5-9.4 7.9-9.4 4.4 0 7.9 4.2 7.9 9.4 0 5.2-3.5 9.5-7.9 9.5zm0-18.4c-4.1 0-7.4 4-7.4 8.9 0 5 3.3 9 7.4 9 4.1 0 7.4-4 7.4-9 0-4.9-3.3-8.9-7.4-8.9z"/>
			</g>
			<path id="&lt;Path&gt;" class="s21" d="m141.8 39.4v4l10.4-0.5v-3.5z"/>
		</g>
		<g id="&lt;Group&gt;">
			<path id="&lt;Path&gt;" class="s1" d="m90.2 142.8l6.8-23.3h3.4c0 0 8.9 16 23.7 17.5v5.8z"/>
			<path id="&lt;Path&gt;" class="s0" d="m97 119.5l-13.8 1.7-4.7 21.6h13.4z"/>
			<path id="&lt;Path&gt;" class="s22" d="m97 119.5c0 0 2.4 15.2 10.2 23.3h16.9v-5.8c0 0-14-2.2-23.7-17.5z"/>
		</g>
		<g id="&lt;Group&gt;">
			<path id="&lt;Path&gt;" class="s1" d="m33.4 142.8l6.5-22.5h3.3c0 0 8.7 15.5 23 16.9v5.6z"/>
			<path id="&lt;Path&gt;" class="s0" d="m39.9 120.3l-13.3 1.6-4.6 20.9h13z"/>
			<path id="&lt;Path&gt;" class="s22" d="m39.9 120.3c0 0 2.4 14.6 9.9 22.5h16.4v-5.6c0 0-13.6-2.1-23-16.9z"/>
		</g>
		<path id="&lt;Path&gt;" class="s23" d="m51.6 130.2c0 0 11.1 3 31.6-9l-4 18.2c0 0-15.9 0.8-27.6-9.2z"/>
	</g>
</svg>