<svg width="512" height="512" viewBox="0 0 512 512" fill="none" xmlns="http://www.w3.org/2000/svg">
<g clip-path="url(#clip0_2_42)">
<path d="M201.824 489.827L42.4338 410.569C12.0009 395.436 -6.26748 363.687 1.98275 338.58L102.538 32.5772C108.351 14.8851 127.025 7.08366 144.106 15.5768L455.416 170.38C472.497 178.874 477.545 198.471 466.947 213.784L283.638 478.637C268.597 500.367 232.256 504.961 201.824 489.827Z" fill="url(#paint0_linear_2_42)"/>
<path d="M79.335 173.861H119.735C163.536 173.861 206.115 188.307 240.874 214.961L265.524 233.863H134.773L79.335 173.861Z" fill="url(#paint1_linear_2_42)"/>
<path d="M105.743 190.469L79.3339 173.861L24.5519 331.339C16.3378 354.938 33.0089 384.765 61.45 398.907L199.643 467.632C228.084 481.774 261.925 477.06 275.796 456.275L424.091 237.034C446.467 203.953 414.555 161.205 376.478 173.253L259.696 210.201C234.141 218.286 207.132 220.709 180.545 217.302C153.959 213.894 128.433 204.738 105.743 190.469Z" fill="url(#paint2_linear_2_42)"/>
<path d="M423.537 154.528L241.729 446.243C224.667 473.621 191.182 484.536 166.056 472.041L211.431 494.604C236.557 507.099 271.12 496.72 289.586 470.04L462.966 219.535C475.711 201.121 474.911 180.073 460.808 173.06L423.537 154.528Z" fill="url(#paint3_linear_2_42)"/>
<path d="M241.729 446.243C233.872 458.85 222.569 467.931 210.321 472.877C233.605 483.271 264.655 472.972 281.264 448.066L409.014 256.502C415.694 246.485 412.066 232.88 401.286 227.519L383.545 218.697L241.729 446.243Z" fill="url(#paint4_linear_2_42)"/>
<path d="M1.58819 339.926C-5.59587 364.811 12.541 395.704 42.4337 410.569L201.824 489.827C231.717 504.692 267.296 500.51 282.803 479.763L1.58819 339.926Z" fill="url(#paint5_linear_2_42)"/>
<path d="M289.586 470.041L462.967 219.536C475.711 201.122 474.911 180.074 460.808 173.061L152.385 19.6939L35.1202 343.504C24.1152 373.894 36.0248 407.381 61.1509 419.876L211.431 494.605C236.558 507.1 271.12 496.721 289.586 470.041Z" fill="url(#paint6_linear_2_42)"/>
<path d="M134.772 253.376L101.042 321.208C100.121 320.789 99.2808 320.214 98.557 319.508L59.8428 281.613C58.4973 280.303 57.6027 278.6 57.2881 276.749C56.9734 274.898 57.2549 272.995 58.0919 271.314L86.52 214.146C87.394 212.396 88.8182 210.982 90.5738 210.121L134.772 253.376Z" fill="url(#paint7_linear_2_42)"/>
<path d="M186.655 264.868L158.451 321.585C157.653 323.189 156.39 324.515 154.826 325.389C153.261 326.262 151.47 326.643 149.686 326.48C149.671 326.472 149.647 326.48 149.632 326.472L103.912 322.014C103.869 322.015 103.827 322.007 103.787 321.991C102.835 321.883 101.907 321.618 101.042 321.206L134.773 253.374L187.277 258.515C187.857 260.637 187.636 262.898 186.655 264.868Z" fill="url(#paint8_linear_2_42)"/>
<path d="M187.277 258.517L137.333 253.627C135.676 253.464 134.123 252.741 132.933 251.576L90.5728 210.12C91.9477 209.443 93.4751 209.135 95.0051 209.226C95.0673 209.218 95.1215 209.226 95.1757 209.233L134.224 212.272C134.247 212.264 134.278 212.28 134.295 212.287C135.997 212.421 137.623 213.048 138.974 214.091C139.113 214.2 139.261 214.331 139.409 214.463L184.57 254.228C184.609 254.267 184.64 254.282 184.671 254.337C185.944 255.473 186.816 256.952 187.277 258.517Z" fill="url(#paint9_linear_2_42)"/>
<path d="M316.493 271.529L244.678 295.642C244.323 294.695 244.135 293.694 244.123 292.683L243.543 238.512C243.518 236.634 244.09 234.797 245.176 233.266C246.263 231.734 247.808 230.587 249.588 229.99L310.113 209.668C311.968 209.049 313.975 209.056 315.826 209.688L316.493 271.529Z" fill="url(#paint10_linear_2_42)"/>
<path d="M345.053 316.342L285.004 336.505C283.306 337.075 281.475 337.118 279.751 336.63C278.028 336.142 276.492 335.144 275.345 333.768C275.339 333.752 275.317 333.741 275.311 333.724L246.135 298.243C246.105 298.213 246.081 298.178 246.064 298.139C245.467 297.389 244.998 296.545 244.678 295.642L316.493 271.529L349.984 312.29C348.895 314.201 347.139 315.644 345.053 316.342Z" fill="url(#paint11_linear_2_42)"/>
<path d="M349.983 312.291L318.126 273.517C317.069 272.23 316.482 270.621 316.464 268.956L315.825 209.688C317.276 210.181 318.574 211.044 319.59 212.191C319.64 212.229 319.673 212.273 319.706 212.316L345.169 242.077C345.191 242.088 345.202 242.121 345.207 242.137C346.316 243.435 347.022 245.028 347.24 246.721C347.263 246.896 347.275 247.093 347.286 247.291L351.101 307.343C351.101 307.398 351.112 307.43 351.095 307.49C351.194 309.196 350.764 310.858 349.983 312.291Z" fill="url(#paint12_linear_2_42)"/>
<path d="M209.383 346.354L233.496 418.169C232.549 418.524 231.548 418.712 230.538 418.725L176.366 419.304C174.488 419.329 172.651 418.757 171.12 417.671C169.588 416.585 168.441 415.04 167.845 413.259L147.522 352.734C146.904 350.879 146.911 348.872 147.542 347.022L209.383 346.354Z" fill="url(#paint13_linear_2_42)"/>
<path d="M254.195 317.793L274.358 377.842C274.928 379.54 274.972 381.371 274.483 383.095C273.995 384.819 272.997 386.355 271.621 387.502C271.605 387.508 271.594 387.529 271.577 387.535L236.096 416.711C236.067 416.741 236.031 416.765 235.992 416.782C235.242 417.38 234.399 417.848 233.495 418.168L209.382 346.353L250.143 312.862C252.054 313.952 253.497 315.707 254.195 317.793Z" fill="url(#paint14_linear_2_42)"/>
<path d="M250.144 312.863L211.371 344.721C210.084 345.778 208.474 346.364 206.809 346.382L147.541 347.022C148.034 345.57 148.897 344.272 150.044 343.256C150.082 343.207 150.126 343.174 150.17 343.14L179.93 317.677C179.941 317.655 179.974 317.644 179.99 317.639C181.288 316.53 182.881 315.824 184.574 315.606C184.75 315.584 184.947 315.572 185.144 315.561L245.196 311.746C245.251 311.746 245.283 311.735 245.343 311.751C247.05 311.652 248.712 312.082 250.144 312.863Z" fill="url(#paint15_linear_2_42)"/>
<path d="M488.897 307.576C501.656 307.576 512 297.233 512 284.473C512 271.714 501.656 261.37 488.897 261.37C476.137 261.37 465.794 271.714 465.794 284.473C465.794 297.233 476.137 307.576 488.897 307.576Z" fill="url(#paint16_linear_2_42)"/>
<path d="M315.826 186.889C324.507 186.889 331.544 179.852 331.544 171.171C331.544 162.49 324.507 155.452 315.826 155.452C307.145 155.452 300.107 162.49 300.107 171.171C300.107 179.852 307.145 186.889 315.826 186.889Z" fill="url(#paint17_linear_2_42)"/>
<path d="M478.909 246.181C487.59 246.181 494.627 239.143 494.627 230.462C494.627 221.781 487.59 214.744 478.909 214.744C470.228 214.744 463.19 221.781 463.19 230.462C463.19 239.143 470.228 246.181 478.909 246.181Z" fill="url(#paint18_linear_2_42)"/>
<path d="M479.056 130.906C490.487 137.514 500.037 146.071 507.568 155.899C512.949 162.922 513.488 172.524 508.871 180.071L508.338 180.942C501.086 192.794 484.804 194.472 474.904 184.722C469.609 179.51 463.734 174.923 457.395 171.05C427.199 152.576 390.909 152.556 361.651 167.806C354.851 171.35 347.89 163.157 352.473 157.008C352.664 156.753 352.854 156.498 353.048 156.245C382.489 117.534 436.95 106.567 479.056 130.906Z" fill="url(#paint19_linear_2_42)"/>
</g>
<defs>
<linearGradient id="paint0_linear_2_42" x1="28.5442" y1="180.792" x2="393.566" y2="362.308" gradientUnits="userSpaceOnUse">
<stop stop-color="#F8F6FB"/>
<stop offset="1" stop-color="#EFDCFB"/>
</linearGradient>
<linearGradient id="paint1_linear_2_42" x1="182.48" y1="180.412" x2="163.196" y2="225.41" gradientUnits="userSpaceOnUse">
<stop stop-color="#FFD945"/>
<stop offset="0.304" stop-color="#FFCD3E"/>
<stop offset="0.856" stop-color="#FFAD2B"/>
<stop offset="1" stop-color="#FFA325"/>
</linearGradient>
<linearGradient id="paint2_linear_2_42" x1="111.944" y1="303.568" x2="416.5" y2="334.023" gradientUnits="userSpaceOnUse">
<stop stop-color="#FFD945"/>
<stop offset="0.304" stop-color="#FFCD3E"/>
<stop offset="0.856" stop-color="#FFAD2B"/>
<stop offset="1" stop-color="#FFA325"/>
</linearGradient>
<linearGradient id="paint3_linear_2_42" x1="286.5" y1="280.8" x2="482.961" y2="568.223" gradientUnits="userSpaceOnUse">
<stop stop-color="#EFDCFB" stop-opacity="0"/>
<stop offset="0.486" stop-color="#BAAAD6" stop-opacity="0.486"/>
<stop offset="1" stop-color="#8679B2"/>
</linearGradient>
<linearGradient id="paint4_linear_2_42" x1="309.995" y1="273.494" x2="317.37" y2="704.632" gradientUnits="userSpaceOnUse">
<stop stop-color="#E87264" stop-opacity="0"/>
<stop offset="1" stop-color="#FF7044"/>
</linearGradient>
<linearGradient id="paint5_linear_2_42" x1="103.276" y1="488.288" x2="156.145" y2="381.972" gradientUnits="userSpaceOnUse">
<stop stop-color="white" stop-opacity="0"/>
<stop offset="1" stop-color="white"/>
</linearGradient>
<linearGradient id="paint6_linear_2_42" x1="205.886" y1="258.982" x2="-24.577" y2="275.171" gradientUnits="userSpaceOnUse">
<stop stop-color="white" stop-opacity="0"/>
<stop offset="1" stop-color="white"/>
</linearGradient>
<linearGradient id="paint7_linear_2_42" x1="98.9255" y1="253.66" x2="73.4086" y2="343.258" gradientUnits="userSpaceOnUse">
<stop stop-color="white" stop-opacity="0"/>
<stop offset="1" stop-color="white"/>
</linearGradient>
<linearGradient id="paint8_linear_2_42" x1="142.472" y1="278.348" x2="160.29" y2="390.463" gradientUnits="userSpaceOnUse">
<stop stop-color="white" stop-opacity="0"/>
<stop offset="1" stop-color="white"/>
</linearGradient>
<linearGradient id="paint9_linear_2_42" x1="141.082" y1="222.353" x2="128.376" y2="296.371" gradientUnits="userSpaceOnUse">
<stop stop-color="white" stop-opacity="0"/>
<stop offset="1" stop-color="white"/>
</linearGradient>
<linearGradient id="paint10_linear_2_42" x1="290.799" y1="246.226" x2="209.383" y2="291.51" gradientUnits="userSpaceOnUse">
<stop stop-color="white" stop-opacity="0"/>
<stop offset="1" stop-color="white"/>
</linearGradient>
<linearGradient id="paint11_linear_2_42" x1="304.117" y1="294.479" x2="237.406" y2="386.333" gradientUnits="userSpaceOnUse">
<stop stop-color="white" stop-opacity="0"/>
<stop offset="1" stop-color="white"/>
</linearGradient>
<linearGradient id="paint12_linear_2_42" x1="342.742" y1="253.915" x2="281.404" y2="297.248" gradientUnits="userSpaceOnUse">
<stop stop-color="white" stop-opacity="0"/>
<stop offset="1" stop-color="white"/>
</linearGradient>
<linearGradient id="paint13_linear_2_42" x1="184.082" y1="372.078" x2="229.394" y2="453.478" gradientUnits="userSpaceOnUse">
<stop stop-color="white" stop-opacity="0"/>
<stop offset="1" stop-color="white"/>
</linearGradient>
<linearGradient id="paint14_linear_2_42" x1="232.331" y1="358.743" x2="324.207" y2="425.422" gradientUnits="userSpaceOnUse">
<stop stop-color="white" stop-opacity="0"/>
<stop offset="1" stop-color="white"/>
</linearGradient>
<linearGradient id="paint15_linear_2_42" x1="191.753" y1="320.132" x2="235.107" y2="381.455" gradientUnits="userSpaceOnUse">
<stop stop-color="white" stop-opacity="0"/>
<stop offset="1" stop-color="white"/>
</linearGradient>
<linearGradient id="paint16_linear_2_42" x1="484.144" y1="279.721" x2="514.465" y2="310.041" gradientUnits="userSpaceOnUse">
<stop stop-color="#FFD945"/>
<stop offset="0.304" stop-color="#FFCD3E"/>
<stop offset="0.856" stop-color="#FFAD2B"/>
<stop offset="1" stop-color="#FFA325"/>
</linearGradient>
<linearGradient id="paint17_linear_2_42" x1="312.592" y1="167.937" x2="333.22" y2="188.565" gradientUnits="userSpaceOnUse">
<stop stop-color="#FFD945"/>
<stop offset="0.304" stop-color="#FFCD3E"/>
<stop offset="0.856" stop-color="#FFAD2B"/>
<stop offset="1" stop-color="#FFA325"/>
</linearGradient>
<linearGradient id="paint18_linear_2_42" x1="475.676" y1="227.229" x2="496.304" y2="247.856" gradientUnits="userSpaceOnUse">
<stop stop-color="#FFD945"/>
<stop offset="0.304" stop-color="#FFCD3E"/>
<stop offset="0.856" stop-color="#FFAD2B"/>
<stop offset="1" stop-color="#FFA325"/>
</linearGradient>
<linearGradient id="paint19_linear_2_42" x1="443.684" y1="124.344" x2="427.853" y2="178.96" gradientUnits="userSpaceOnUse">
<stop stop-color="#FFD945"/>
<stop offset="0.304" stop-color="#FFCD3E"/>
<stop offset="0.856" stop-color="#FFAD2B"/>
<stop offset="1" stop-color="#FFA325"/>
</linearGradient>
<clipPath id="clip0_2_42">
<rect width="512" height="512" fill="white"/>
</clipPath>
</defs>
</svg>
